<svg width="44" height="44" viewBox="0 0 44 44" fill="none" xmlns="http://www.w3.org/2000/svg">
<path d="M21.5048 11.9201C21.6696 11.912 21.8347 11.908 22 11.908C22.1654 11.908 22.3305 11.912 22.4952 11.9201L23.0195 1.24726C22.6803 1.23059 22.3404 1.22223 22 1.22223C21.6597 1.22223 21.3197 1.23059 20.9805 1.24726L21.5048 11.9201Z" fill="url(#paint0_linear_3129_3293)"/>
<path d="M19.5478 12.2104C19.8683 12.1302 20.1924 12.0656 20.5192 12.0172L18.9513 1.44712C18.2786 1.54691 17.6111 1.67966 16.9514 1.84491L19.5478 12.2104Z" fill="url(#paint1_linear_3129_3293)"/>
<path d="M23.4808 12.0172C23.8076 12.0656 24.1318 12.1302 24.4522 12.2104L27.0486 1.84491C26.3889 1.67967 25.7215 1.54691 25.0488 1.44712L23.4808 12.0172Z" fill="url(#paint2_linear_3129_3293)"/>
<path d="M18.1379 12.6761C18.2907 12.6129 18.4448 12.5535 18.6001 12.4979L15.0002 2.43682C14.6804 2.55124 14.3632 2.6736 14.0487 2.80384C13.7342 2.93409 13.4234 3.0719 13.1164 3.21711L17.6851 12.8769C17.8342 12.8064 17.9852 12.7394 18.1379 12.6761Z" fill="url(#paint3_linear_3129_3293)"/>
<path d="M25.3999 12.4979C25.5552 12.5535 25.7094 12.6129 25.8621 12.6761C26.0148 12.7394 26.1658 12.8064 26.3149 12.8769L30.8837 3.21712C30.5766 3.0719 30.2658 2.93409 29.9513 2.80384C29.6369 2.6736 29.3196 2.55124 28.9999 2.43682L25.3999 12.4979Z" fill="url(#paint4_linear_3129_3293)"/>
<path d="M15.9882 13.894C16.2535 13.6972 16.5283 13.5136 16.8117 13.3438L11.3181 4.17831C10.7348 4.52795 10.169 4.90601 9.62269 5.31114L15.9882 13.894Z" fill="url(#paint5_linear_3129_3293)"/>
<path d="M27.1884 13.3438C27.4717 13.5136 27.7466 13.6972 28.0119 13.894L34.3773 5.31114C33.8311 4.90602 33.2653 4.52795 32.6819 4.17832L27.1884 13.3438Z" fill="url(#paint6_linear_3129_3293)"/>
<path d="M14.8639 14.8639C14.9807 14.747 15.1004 14.633 15.2226 14.5223L8.04648 6.60469C7.79484 6.83279 7.54856 7.06725 7.3079 7.3079C7.06725 7.54856 6.83279 7.79484 6.60469 8.04648L14.5223 15.2226C14.633 15.1004 14.747 14.9807 14.8639 14.8639Z" fill="url(#paint7_linear_3129_3293)"/>
<path d="M28.7775 14.5223C28.8997 14.633 29.0193 14.747 29.1362 14.8639C29.2531 14.9807 29.367 15.1004 29.4778 15.2226L37.3953 8.04648C37.1672 7.79484 36.9328 7.54856 36.6921 7.3079C36.4515 7.06725 36.2052 6.83279 35.9535 6.60469L28.7775 14.5223Z" fill="url(#paint8_linear_3129_3293)"/>
<path d="M13.3438 16.8117C13.5136 16.5283 13.6972 16.2535 13.894 15.9882L5.31114 9.62269C4.90602 10.169 4.52795 10.7348 4.17832 11.3181L13.3438 16.8117Z" fill="url(#paint9_linear_3129_3293)"/>
<path d="M30.106 15.9882C30.3028 16.2535 30.4864 16.5283 30.6563 16.8117L39.8217 11.3181C39.4721 10.7348 39.094 10.169 38.6889 9.62269L30.106 15.9882Z" fill="url(#paint10_linear_3129_3293)"/>
<path d="M12.6761 18.1379C12.7394 17.9852 12.8064 17.8342 12.8769 17.6851L3.21712 13.1164C3.0719 13.4234 2.93409 13.7342 2.80384 14.0487C2.6736 14.3631 2.55124 14.6804 2.43682 15.0002L12.4979 18.6001C12.5535 18.4448 12.6129 18.2907 12.6761 18.1379Z" fill="url(#paint11_linear_3129_3293)"/>
<path d="M31.1231 17.6851C31.1937 17.8342 31.2606 17.9852 31.3239 18.1379C31.3871 18.2907 31.4466 18.4448 31.5022 18.6001L41.5632 15.0002C41.4488 14.6804 41.3265 14.3632 41.1962 14.0487C41.0659 13.7342 40.9281 13.4234 40.7829 13.1164L31.1231 17.6851Z" fill="url(#paint12_linear_3129_3293)"/>
<path d="M12.0172 20.5192C12.0656 20.1924 12.1302 19.8683 12.2104 19.5478L1.84491 16.9514C1.67967 17.6111 1.54691 18.2785 1.44712 18.9513L12.0172 20.5192Z" fill="url(#paint13_linear_3129_3293)"/>
<path d="M31.7896 19.5478C31.8699 19.8683 31.9344 20.1924 31.9829 20.5192L42.5529 18.9513C42.4531 18.2786 42.3204 17.6111 42.1551 16.9514L31.7896 19.5478Z" fill="url(#paint14_linear_3129_3293)"/>
<path d="M11.908 22C11.908 21.8347 11.912 21.6696 11.9201 21.5048L1.24726 20.9805C1.23059 21.3197 1.22223 21.6597 1.22223 22C1.22223 24.7286 1.75966 27.4305 2.80384 29.9513C3.84802 32.4722 5.37851 34.7627 7.3079 36.6921C9.23728 38.6215 11.5278 40.152 14.0487 41.1962C16.5696 42.2403 19.2714 42.7778 22 42.7778C24.7286 42.7778 27.4305 42.2403 29.9513 41.1962C32.4722 40.152 34.7627 38.6215 36.6921 36.6921C38.6215 34.7627 40.152 32.4722 41.1962 29.9513C42.2403 27.4305 42.7778 24.7286 42.7778 22C42.7778 21.6597 42.7694 21.3197 42.7528 20.9805L32.0799 21.5048C32.088 21.6696 32.0921 21.8347 32.0921 22C32.0921 23.3253 31.831 24.6376 31.3239 25.8621C30.8167 27.0865 30.0733 28.199 29.1362 29.1362C28.199 30.0733 27.0865 30.8167 25.8621 31.3239C24.6376 31.831 23.3253 32.0921 22 32.0921C20.6747 32.0921 19.3624 31.831 18.1379 31.3239C16.9135 30.8167 15.801 30.0733 14.8639 29.1362C13.9267 28.199 13.1834 27.0865 12.6761 25.8621C12.169 24.6376 11.908 23.3253 11.908 22Z" fill="url(#paint15_linear_3129_3293)"/>
<path d="M22.0014 11.9076C21.8361 11.9076 21.6709 11.9116 21.5062 11.9198L21.3071 7.86667C21.7674 7.66812 22.2394 7.49138 22.7217 7.3378L22.4966 11.9198C22.3318 11.9116 22.1667 11.9076 22.0014 11.9076Z" fill="#5165E1"/>
<path d="M24.2353 6.93998L23.4822 12.0168C23.809 12.0653 24.1332 12.1298 24.4536 12.2101L25.8355 6.69328C25.2933 6.74785 24.7594 6.8306 24.2353 6.93998Z" fill="#5165E1"/>
<path d="M27.5059 6.61566L25.4013 12.4975C25.5566 12.5531 25.7107 12.6125 25.8634 12.6758C26.0162 12.7391 26.1672 12.806 26.3163 12.8766L29.2266 6.7232C28.6619 6.65616 28.0877 6.61977 27.5059 6.61566Z" fill="#5165E1"/>
<path d="M30.9719 7.03329L27.1898 13.3434C27.4731 13.5132 27.7479 13.6969 28.0132 13.8937L32.7115 7.55874C32.1465 7.35064 31.5659 7.17472 30.9719 7.03329Z" fill="#5165E1"/>
<path d="M34.4129 8.30568L28.7788 14.5219C28.9011 14.6327 29.0206 14.7466 29.1376 14.8635C29.2545 14.9804 29.3683 15.1 29.4791 15.2222L36.0422 9.27379C35.5211 8.91904 34.9771 8.59541 34.4129 8.30568Z" fill="#5165E1"/>
<path d="M37.5654 10.4566L30.1074 15.9878C30.3042 16.2531 30.4878 16.528 30.6577 16.8113L38.949 11.8416C38.5175 11.3513 38.0553 10.8886 37.5654 10.4566Z" fill="#5165E1"/>
<path d="M40.1605 13.4111L31.1245 17.6847C31.1951 17.8339 31.262 17.9848 31.3252 18.1376C31.3885 18.2903 31.448 18.4445 31.5035 18.5998L41.1696 15.1412C40.8702 14.5411 40.5328 13.9633 40.1605 13.4111Z" fill="#5165E1"/>
<path d="M41.9495 17.0029L31.791 19.5475C31.8713 19.8679 31.9358 20.1921 31.9843 20.5189L42.4793 18.962C42.3452 18.2923 42.1676 17.6382 41.9495 17.0029Z" fill="#5165E1"/>
<path d="M42.7459 20.9805L32.0813 21.5045C32.0894 21.6692 32.0934 21.8343 32.0934 21.9997C32.0934 23.325 31.8324 24.6373 31.3252 25.8617C30.8181 27.0862 30.0747 28.1987 29.1376 29.1358C28.2004 30.073 27.0879 30.8163 25.8634 31.3235C24.639 31.8307 23.3267 32.0917 22.0014 32.0917C20.6761 32.0917 19.3637 31.8307 18.1393 31.3235C16.9149 30.8163 15.8023 30.073 14.8652 29.1358C13.9281 28.1987 13.1847 27.0862 12.6775 25.8617C12.4769 25.3773 12.3148 24.8792 12.1921 24.372C13.3329 31.7422 19.705 37.3841 27.3947 37.3841C35.8913 37.3841 42.7791 30.4963 42.7791 21.9997C42.7791 21.6572 42.768 21.3174 42.7459 20.9805Z" fill="#5165E1"/>
<path d="M12.1921 19.6275C12.1985 19.6008 12.2051 19.5742 12.2118 19.5475L12.205 19.5458C12.2006 19.573 12.1963 19.6002 12.1921 19.6275Z" fill="#5165E1"/>
<path d="M12.3957 18.5627L12.4993 18.5997C12.5549 18.4445 12.6143 18.2903 12.6775 18.1376C12.7408 17.9848 12.8077 17.8339 12.8783 17.6847L12.6549 17.5791C12.558 17.9026 12.4715 18.2306 12.3957 18.5627Z" fill="#5165E1"/>
<path d="M12.9861 16.5961L13.3452 16.8113C13.515 16.528 13.6986 16.2531 13.8954 15.9878L13.3934 15.6155C13.2467 15.9366 13.1108 16.2636 12.9861 16.5961Z" fill="#5165E1"/>
<path d="M13.8815 14.6402L14.5237 15.2222C14.6344 15.1 14.7483 14.9804 14.8652 14.8635C14.9821 14.7466 15.1018 14.6327 15.224 14.5219L14.4556 13.6741C14.2529 13.9884 14.0613 14.3107 13.8815 14.6402Z" fill="#5165E1"/>
<path d="M15.1211 12.7226L15.9896 13.8937C16.2549 13.6969 16.5297 13.5132 16.8131 13.3434L15.8836 11.7928C15.6177 12.0925 15.3633 12.4027 15.1211 12.7226Z" fill="#5165E1"/>
<path d="M16.7487 10.8937L17.6865 12.8766C17.8356 12.806 17.9866 12.7391 18.1393 12.6758C18.2921 12.6125 18.4462 12.5531 18.6015 12.4975L17.721 10.0367C17.3849 10.3087 17.0605 10.5947 16.7487 10.8937Z" fill="#5165E1"/>
<path d="M18.8041 9.23528L19.5492 12.2101C19.8697 12.1298 20.1938 12.0653 20.5206 12.0168L19.9998 8.50584C19.5895 8.73116 19.1905 8.97468 18.8041 9.23528Z" fill="#5165E1"/>
<defs>
<linearGradient id="paint0_linear_3129_3293" x1="-4.80333" y1="-3.55667" x2="40.3884" y2="42.7778" gradientUnits="userSpaceOnUse">
<stop offset="0.0363151" stop-color="#3B53F1"/>
<stop offset="0.524591" stop-color="#6D80FD"/>
<stop offset="1" stop-color="#C9D0FE"/>
</linearGradient>
<linearGradient id="paint1_linear_3129_3293" x1="-4.80333" y1="-3.55667" x2="40.3884" y2="42.7778" gradientUnits="userSpaceOnUse">
<stop offset="0.0363151" stop-color="#3B53F1"/>
<stop offset="0.524591" stop-color="#6D80FD"/>
<stop offset="1" stop-color="#C9D0FE"/>
</linearGradient>
<linearGradient id="paint2_linear_3129_3293" x1="-4.80333" y1="-3.55667" x2="40.3884" y2="42.7778" gradientUnits="userSpaceOnUse">
<stop offset="0.0363151" stop-color="#3B53F1"/>
<stop offset="0.524591" stop-color="#6D80FD"/>
<stop offset="1" stop-color="#C9D0FE"/>
</linearGradient>
<linearGradient id="paint3_linear_3129_3293" x1="-4.80333" y1="-3.55667" x2="40.3884" y2="42.7778" gradientUnits="userSpaceOnUse">
<stop offset="0.0363151" stop-color="#3B53F1"/>
<stop offset="0.524591" stop-color="#6D80FD"/>
<stop offset="1" stop-color="#C9D0FE"/>
</linearGradient>
<linearGradient id="paint4_linear_3129_3293" x1="-4.80333" y1="-3.55667" x2="40.3884" y2="42.7778" gradientUnits="userSpaceOnUse">
<stop offset="0.0363151" stop-color="#3B53F1"/>
<stop offset="0.524591" stop-color="#6D80FD"/>
<stop offset="1" stop-color="#C9D0FE"/>
</linearGradient>
<linearGradient id="paint5_linear_3129_3293" x1="-4.80333" y1="-3.55667" x2="40.3884" y2="42.7778" gradientUnits="userSpaceOnUse">
<stop offset="0.0363151" stop-color="#3B53F1"/>
<stop offset="0.524591" stop-color="#6D80FD"/>
<stop offset="1" stop-color="#C9D0FE"/>
</linearGradient>
<linearGradient id="paint6_linear_3129_3293" x1="-4.80333" y1="-3.55667" x2="40.3884" y2="42.7778" gradientUnits="userSpaceOnUse">
<stop offset="0.0363151" stop-color="#3B53F1"/>
<stop offset="0.524591" stop-color="#6D80FD"/>
<stop offset="1" stop-color="#C9D0FE"/>
</linearGradient>
<linearGradient id="paint7_linear_3129_3293" x1="-4.80333" y1="-3.55667" x2="40.3884" y2="42.7778" gradientUnits="userSpaceOnUse">
<stop offset="0.0363151" stop-color="#3B53F1"/>
<stop offset="0.524591" stop-color="#6D80FD"/>
<stop offset="1" stop-color="#C9D0FE"/>
</linearGradient>
<linearGradient id="paint8_linear_3129_3293" x1="-4.80333" y1="-3.55667" x2="40.3884" y2="42.7778" gradientUnits="userSpaceOnUse">
<stop offset="0.0363151" stop-color="#3B53F1"/>
<stop offset="0.524591" stop-color="#6D80FD"/>
<stop offset="1" stop-color="#C9D0FE"/>
</linearGradient>
<linearGradient id="paint9_linear_3129_3293" x1="-4.80333" y1="-3.55667" x2="40.3884" y2="42.7778" gradientUnits="userSpaceOnUse">
<stop offset="0.0363151" stop-color="#3B53F1"/>
<stop offset="0.524591" stop-color="#6D80FD"/>
<stop offset="1" stop-color="#C9D0FE"/>
</linearGradient>
<linearGradient id="paint10_linear_3129_3293" x1="-4.80333" y1="-3.55667" x2="40.3884" y2="42.7778" gradientUnits="userSpaceOnUse">
<stop offset="0.0363151" stop-color="#3B53F1"/>
<stop offset="0.524591" stop-color="#6D80FD"/>
<stop offset="1" stop-color="#C9D0FE"/>
</linearGradient>
<linearGradient id="paint11_linear_3129_3293" x1="-4.80333" y1="-3.55667" x2="40.3884" y2="42.7778" gradientUnits="userSpaceOnUse">
<stop offset="0.0363151" stop-color="#3B53F1"/>
<stop offset="0.524591" stop-color="#6D80FD"/>
<stop offset="1" stop-color="#C9D0FE"/>
</linearGradient>
<linearGradient id="paint12_linear_3129_3293" x1="-4.80333" y1="-3.55667" x2="40.3884" y2="42.7778" gradientUnits="userSpaceOnUse">
<stop offset="0.0363151" stop-color="#3B53F1"/>
<stop offset="0.524591" stop-color="#6D80FD"/>
<stop offset="1" stop-color="#C9D0FE"/>
</linearGradient>
<linearGradient id="paint13_linear_3129_3293" x1="-4.80333" y1="-3.55667" x2="40.3884" y2="42.7778" gradientUnits="userSpaceOnUse">
<stop offset="0.0363151" stop-color="#3B53F1"/>
<stop offset="0.524591" stop-color="#6D80FD"/>
<stop offset="1" stop-color="#C9D0FE"/>
</linearGradient>
<linearGradient id="paint14_linear_3129_3293" x1="-4.80333" y1="-3.55667" x2="40.3884" y2="42.7778" gradientUnits="userSpaceOnUse">
<stop offset="0.0363151" stop-color="#3B53F1"/>
<stop offset="0.524591" stop-color="#6D80FD"/>
<stop offset="1" stop-color="#C9D0FE"/>
</linearGradient>
<linearGradient id="paint15_linear_3129_3293" x1="-4.80333" y1="-3.55667" x2="40.3884" y2="42.7778" gradientUnits="userSpaceOnUse">
<stop offset="0.0363151" stop-color="#3B53F1"/>
<stop offset="0.524591" stop-color="#6D80FD"/>
<stop offset="1" stop-color="#C9D0FE"/>
</linearGradient>
</defs>
</svg>
