<svg
    width="210"
    height="210"
    viewBox="0 0 210 210"
    fill="none"
    xmlns="http://www.w3.org/2000/svg"
>
<rect x="0.5" y="0.5" width="209" height="209" rx="7.5" fill="#F1F1F1" />
<rect
        x="0.5"
        y="0.5"
        width="209"
        height="209"
        rx="7.5"
        stroke="#E3E5E8"
        stroke-dasharray="16 8"
    />
<circle cx="105" cy="76.5" r="28" fill="#A2A2A2" fill-opacity="0.2" />
<path
        fill-rule="evenodd"
        clip-rule="evenodd"
        d="M97 69V72H100V69H97ZM96.9988 72C96.9987 71.9999 96.9987 71.9999 96.9988 72L96.9988 72ZM95 69C95 67.8954 95.8954 67 97 67H100C101.105 67 102 67.8954 102 69V72C102 73.1046 101.105 74 100 74H97C95.8954 74 95 73.1046 95 72V69Z"
        fill="#535964"
    />
<path
        fill-rule="evenodd"
        clip-rule="evenodd"
        d="M110 69V72H113V69H110ZM109.999 72C109.999 71.9999 109.999 71.9999 109.999 72L109.999 72ZM108 69C108 67.8954 108.895 67 110 67H113C114.105 67 115 67.8954 115 69V72C115 73.1046 114.105 74 113 74H110C108.895 74 108 73.1046 108 72V69Z"
        fill="#535964"
    />
<path
        fill-rule="evenodd"
        clip-rule="evenodd"
        d="M97 82V85H100V82H97ZM96.9988 85C96.9987 84.9999 96.9987 84.9999 96.9988 85L96.9988 85ZM95 82C95 80.8954 95.8954 80 97 80H100C101.105 80 102 80.8954 102 82V85C102 86.1046 101.105 87 100 87H97C95.8954 87 95 86.1046 95 85V82Z"
        fill="#535964"
    />
<path
        fill-rule="evenodd"
        clip-rule="evenodd"
        d="M108.879 80.8787C109.441 80.3161 110.204 80 111 80H114C114.552 80 115 80.4477 115 81C115 81.5523 114.552 82 114 82H111C110.735 82 110.48 82.1054 110.293 82.2929C110.105 82.4804 110 82.7348 110 83V86C110 86.5523 109.552 87 109 87C108.448 87 108 86.5523 108 86V83C108 82.2043 108.316 81.4413 108.879 80.8787Z"
        fill="#535964"
    />
<path
        fill-rule="evenodd"
        clip-rule="evenodd"
        d="M114 85C114.552 85 115 85.4477 115 86V86.01C115 86.5623 114.552 87.01 114 87.01C113.448 87.01 113 86.5623 113 86.01V86C113 85.4477 113.448 85 114 85Z"
        fill="#535964"
    />
<path
        fill-rule="evenodd"
        clip-rule="evenodd"
        d="M105 71C105.552 71 106 71.4477 106 72V75C106 75.7957 105.684 76.5587 105.121 77.1213C104.559 77.6839 103.796 78 103 78H100C99.4477 78 99 77.5523 99 77C99 76.4477 99.4477 76 100 76H103C103.265 76 103.52 75.8946 103.707 75.7071C103.895 75.5196 104 75.2652 104 75V72C104 71.4477 104.448 71 105 71Z"
        fill="#535964"
    />
<path
        fill-rule="evenodd"
        clip-rule="evenodd"
        d="M95 77C95 76.4477 95.4477 76 96 76H96.01C96.5623 76 97.01 76.4477 97.01 77C97.01 77.5523 96.5623 78 96.01 78H96C95.4477 78 95 77.5523 95 77Z"
        fill="#535964"
    />
<path
        fill-rule="evenodd"
        clip-rule="evenodd"
        d="M104 68C104 67.4477 104.448 67 105 67H105.01C105.562 67 106.01 67.4477 106.01 68C106.01 68.5523 105.562 69 105.01 69H105C104.448 69 104 68.5523 104 68Z"
        fill="#535964"
    />
<path
        fill-rule="evenodd"
        clip-rule="evenodd"
        d="M105 80C105.552 80 106 80.4477 106 81V81.01C106 81.5623 105.552 82.01 105 82.01C104.448 82.01 104 81.5623 104 81.01V81C104 80.4477 104.448 80 105 80Z"
        fill="#535964"
    />
<path
        fill-rule="evenodd"
        clip-rule="evenodd"
        d="M108 77C108 76.4477 108.448 76 109 76H110C110.552 76 111 76.4477 111 77C111 77.5523 110.552 78 110 78H109C108.448 78 108 77.5523 108 77Z"
        fill="#535964"
    />
<path
        fill-rule="evenodd"
        clip-rule="evenodd"
        d="M114 76C114.552 76 115 76.4477 115 77V77.01C115 77.5623 114.552 78.01 114 78.01C113.448 78.01 113 77.5623 113 77.01V77C113 76.4477 113.448 76 114 76Z"
        fill="#535964"
    />
<path
        fill-rule="evenodd"
        clip-rule="evenodd"
        d="M105 84C105.552 84 106 84.4477 106 85V86C106 86.5523 105.552 87 105 87C104.448 87 104 86.5523 104 86V85C104 84.4477 104.448 84 105 84Z"
        fill="#535964"
    />
<path
        d="M42.606 123.162C42.606 123.638 42.67 124.066 42.798 124.446C42.926 124.822 43.108 125.142 43.344 125.406C43.584 125.666 43.872 125.866 44.208 126.006C44.548 126.146 44.93 126.216 45.354 126.216C45.778 126.216 46.158 126.146 46.494 126.006C46.834 125.866 47.122 125.666 47.358 125.406C47.594 125.142 47.776 124.822 47.904 124.446C48.032 124.066 48.096 123.638 48.096 123.162C48.096 122.686 48.032 122.26 47.904 121.884C47.776 121.504 47.594 121.182 47.358 120.918C47.122 120.654 46.834 120.452 46.494 120.312C46.158 120.172 45.778 120.102 45.354 120.102C44.93 120.102 44.548 120.172 44.208 120.312C43.872 120.452 43.584 120.654 43.344 120.918C43.108 121.182 42.926 121.504 42.798 121.884C42.67 122.26 42.606 122.686 42.606 123.162ZM50.196 129.198H48.864C48.672 129.198 48.498 129.172 48.342 129.12C48.19 129.068 48.05 128.972 47.922 128.832L46.65 127.428C46.446 127.484 46.236 127.526 46.02 127.554C45.808 127.582 45.586 127.596 45.354 127.596C44.698 127.596 44.1 127.486 43.56 127.266C43.02 127.042 42.556 126.732 42.168 126.336C41.784 125.94 41.486 125.472 41.274 124.932C41.062 124.388 40.956 123.798 40.956 123.162C40.956 122.526 41.062 121.938 41.274 121.398C41.486 120.854 41.784 120.384 42.168 119.988C42.556 119.592 43.02 119.284 43.56 119.064C44.1 118.84 44.698 118.728 45.354 118.728C45.794 118.728 46.208 118.78 46.596 118.884C46.984 118.984 47.34 119.128 47.664 119.316C47.988 119.5 48.278 119.726 48.534 119.994C48.794 120.258 49.014 120.554 49.194 120.882C49.374 121.21 49.51 121.566 49.602 121.95C49.698 122.334 49.746 122.738 49.746 123.162C49.746 123.55 49.706 123.922 49.626 124.278C49.546 124.63 49.43 124.96 49.278 125.268C49.13 125.576 48.948 125.86 48.732 126.12C48.516 126.376 48.27 126.602 47.994 126.798L50.196 129.198ZM53.7794 122.952C54.0834 122.952 54.3474 122.914 54.5714 122.838C54.7994 122.762 54.9854 122.658 55.1294 122.526C55.2774 122.39 55.3874 122.23 55.4594 122.046C55.5314 121.862 55.5674 121.66 55.5674 121.44C55.5674 121 55.4214 120.662 55.1294 120.426C54.8414 120.19 54.3994 120.072 53.8034 120.072H52.7714V122.952H53.7794ZM57.9314 127.5H56.4734C56.1974 127.5 55.9974 127.392 55.8734 127.176L54.0494 124.398C53.9814 124.294 53.9054 124.22 53.8214 124.176C53.7414 124.132 53.6214 124.11 53.4614 124.11H52.7714V127.5H51.1574V118.824H53.8034C54.3914 118.824 54.8954 118.886 55.3154 119.01C55.7394 119.13 56.0854 119.3 56.3534 119.52C56.6254 119.74 56.8254 120.004 56.9534 120.312C57.0814 120.616 57.1454 120.952 57.1454 121.32C57.1454 121.612 57.1014 121.888 57.0134 122.148C56.9294 122.408 56.8054 122.644 56.6414 122.856C56.4814 123.068 56.2814 123.254 56.0414 123.414C55.8054 123.574 55.5354 123.7 55.2314 123.792C55.3354 123.852 55.4314 123.924 55.5194 124.008C55.6074 124.088 55.6874 124.184 55.7594 124.296L57.9314 127.5ZM67.7443 125.454C67.8323 125.454 67.9103 125.488 67.9783 125.556L68.6143 126.246C68.2623 126.682 67.8283 127.016 67.3123 127.248C66.8003 127.48 66.1843 127.596 65.4643 127.596C64.8203 127.596 64.2403 127.486 63.7243 127.266C63.2123 127.046 62.7743 126.74 62.4103 126.348C62.0463 125.956 61.7663 125.488 61.5703 124.944C61.3783 124.4 61.2823 123.806 61.2823 123.162C61.2823 122.51 61.3863 121.914 61.5943 121.374C61.8023 120.83 62.0943 120.362 62.4703 119.97C62.8503 119.578 63.3023 119.274 63.8263 119.058C64.3503 118.838 64.9303 118.728 65.5663 118.728C66.1983 118.728 66.7583 118.832 67.2463 119.04C67.7383 119.248 68.1563 119.52 68.5003 119.856L67.9603 120.606C67.9283 120.654 67.8863 120.696 67.8343 120.732C67.7863 120.768 67.7183 120.786 67.6303 120.786C67.5703 120.786 67.5083 120.77 67.4443 120.738C67.3803 120.702 67.3103 120.66 67.2343 120.612C67.1583 120.56 67.0703 120.504 66.9703 120.444C66.8703 120.384 66.7543 120.33 66.6223 120.282C66.4903 120.23 66.3363 120.188 66.1603 120.156C65.9883 120.12 65.7883 120.102 65.5603 120.102C65.1723 120.102 64.8163 120.172 64.4923 120.312C64.1723 120.448 63.8963 120.648 63.6643 120.912C63.4323 121.172 63.2523 121.492 63.1243 121.872C62.9963 122.248 62.9323 122.678 62.9323 123.162C62.9323 123.65 63.0003 124.084 63.1363 124.464C63.2763 124.844 63.4643 125.164 63.7003 125.424C63.9363 125.684 64.2143 125.884 64.5343 126.024C64.8543 126.16 65.1983 126.228 65.5663 126.228C65.7863 126.228 65.9843 126.216 66.1603 126.192C66.3403 126.168 66.5043 126.13 66.6523 126.078C66.8043 126.026 66.9463 125.96 67.0783 125.88C67.2143 125.796 67.3483 125.694 67.4803 125.574C67.5203 125.538 67.5623 125.51 67.6063 125.49C67.6503 125.466 67.6963 125.454 67.7443 125.454ZM72.081 121.248C72.537 121.248 72.951 121.322 73.323 121.47C73.699 121.618 74.019 121.828 74.283 122.1C74.551 122.372 74.757 122.704 74.901 123.096C75.045 123.488 75.117 123.926 75.117 124.41C75.117 124.898 75.045 125.338 74.901 125.73C74.757 126.122 74.551 126.456 74.283 126.732C74.019 127.008 73.699 127.22 73.323 127.368C72.951 127.516 72.537 127.59 72.081 127.59C71.621 127.59 71.203 127.516 70.827 127.368C70.451 127.22 70.129 127.008 69.861 126.732C69.597 126.456 69.391 126.122 69.243 125.73C69.099 125.338 69.027 124.898 69.027 124.41C69.027 123.926 69.099 123.488 69.243 123.096C69.391 122.704 69.597 122.372 69.861 122.1C70.129 121.828 70.451 121.618 70.827 121.47C71.203 121.322 71.621 121.248 72.081 121.248ZM72.081 126.45C72.593 126.45 72.971 126.278 73.215 125.934C73.463 125.59 73.587 125.086 73.587 124.422C73.587 123.758 73.463 123.252 73.215 122.904C72.971 122.556 72.593 122.382 72.081 122.382C71.561 122.382 71.175 122.558 70.923 122.91C70.675 123.258 70.551 123.762 70.551 124.422C70.551 125.082 70.675 125.586 70.923 125.934C71.175 126.278 71.561 126.45 72.081 126.45ZM80.1116 122.916C79.9436 122.712 79.7596 122.568 79.5596 122.484C79.3636 122.4 79.1516 122.358 78.9236 122.358C78.6996 122.358 78.4976 122.4 78.3176 122.484C78.1376 122.568 77.9836 122.696 77.8556 122.868C77.7276 123.036 77.6296 123.252 77.5616 123.516C77.4936 123.776 77.4596 124.084 77.4596 124.44C77.4596 124.8 77.4876 125.106 77.5436 125.358C77.6036 125.606 77.6876 125.81 77.7956 125.97C77.9036 126.126 78.0356 126.24 78.1916 126.312C78.3476 126.38 78.5216 126.414 78.7136 126.414C79.0216 126.414 79.2836 126.35 79.4996 126.222C79.7156 126.094 79.9196 125.912 80.1116 125.676V122.916ZM81.5936 118.584V127.5H80.6876C80.4916 127.5 80.3676 127.41 80.3156 127.23L80.1896 126.636C79.9416 126.92 79.6556 127.15 79.3316 127.326C79.0116 127.502 78.6376 127.59 78.2096 127.59C77.8736 127.59 77.5656 127.52 77.2856 127.38C77.0056 127.24 76.7636 127.038 76.5596 126.774C76.3596 126.506 76.2036 126.176 76.0916 125.784C75.9836 125.392 75.9296 124.944 75.9296 124.44C75.9296 123.984 75.9916 123.56 76.1156 123.168C76.2396 122.776 76.4176 122.436 76.6496 122.148C76.8816 121.86 77.1596 121.636 77.4836 121.476C77.8076 121.312 78.1716 121.23 78.5756 121.23C78.9196 121.23 79.2136 121.284 79.4576 121.392C79.7016 121.5 79.9196 121.646 80.1116 121.83V118.584H81.5936ZM87.0222 123.714C87.0222 123.522 86.9942 123.342 86.9382 123.174C86.8862 123.002 86.8062 122.852 86.6982 122.724C86.5902 122.596 86.4522 122.496 86.2842 122.424C86.1202 122.348 85.9282 122.31 85.7082 122.31C85.2802 122.31 84.9422 122.432 84.6942 122.676C84.4502 122.92 84.2942 123.266 84.2262 123.714H87.0222ZM84.1962 124.608C84.2202 124.924 84.2762 125.198 84.3642 125.43C84.4522 125.658 84.5682 125.848 84.7122 126C84.8562 126.148 85.0262 126.26 85.2222 126.336C85.4222 126.408 85.6422 126.444 85.8822 126.444C86.1222 126.444 86.3282 126.416 86.5002 126.36C86.6762 126.304 86.8282 126.242 86.9562 126.174C87.0882 126.106 87.2022 126.044 87.2982 125.988C87.3982 125.932 87.4942 125.904 87.5862 125.904C87.7102 125.904 87.8022 125.95 87.8622 126.042L88.2882 126.582C88.1242 126.774 87.9402 126.936 87.7362 127.068C87.5322 127.196 87.3182 127.3 87.0942 127.38C86.8742 127.456 86.6482 127.51 86.4162 127.542C86.1882 127.574 85.9662 127.59 85.7502 127.59C85.3222 127.59 84.9242 127.52 84.5562 127.38C84.1882 127.236 83.8682 127.026 83.5962 126.75C83.3242 126.47 83.1102 126.126 82.9542 125.718C82.7982 125.306 82.7202 124.83 82.7202 124.29C82.7202 123.87 82.7882 123.476 82.9242 123.108C83.0602 122.736 83.2542 122.414 83.5062 122.142C83.7622 121.866 84.0722 121.648 84.4362 121.488C84.8042 121.328 85.2182 121.248 85.6782 121.248C86.0662 121.248 86.4242 121.31 86.7522 121.434C87.0802 121.558 87.3622 121.74 87.5982 121.98C87.8342 122.216 88.0182 122.508 88.1502 122.856C88.2862 123.2 88.3542 123.594 88.3542 124.038C88.3542 124.262 88.3302 124.414 88.2822 124.494C88.2342 124.57 88.1422 124.608 88.0062 124.608H84.1962ZM93.7703 122.1C93.8943 121.976 94.0243 121.862 94.1603 121.758C94.3003 121.65 94.4463 121.56 94.5983 121.488C94.7543 121.412 94.9203 121.354 95.0963 121.314C95.2723 121.27 95.4643 121.248 95.6723 121.248C96.0083 121.248 96.3063 121.306 96.5663 121.422C96.8263 121.534 97.0423 121.694 97.2143 121.902C97.3903 122.106 97.5223 122.352 97.6103 122.64C97.7023 122.924 97.7483 123.238 97.7483 123.582V127.5H96.2663V123.582C96.2663 123.206 96.1803 122.916 96.0083 122.712C95.8363 122.504 95.5743 122.4 95.2223 122.4C94.9663 122.4 94.7263 122.458 94.5023 122.574C94.2783 122.69 94.0663 122.848 93.8663 123.048V127.5H92.3843V121.344H93.2903C93.4823 121.344 93.6083 121.434 93.6683 121.614L93.7703 122.1ZM102.41 124.872C101.982 124.892 101.622 124.93 101.33 124.986C101.038 125.038 100.804 125.106 100.628 125.19C100.452 125.274 100.326 125.372 100.25 125.484C100.174 125.596 100.136 125.718 100.136 125.85C100.136 126.11 100.212 126.296 100.364 126.408C100.52 126.52 100.722 126.576 100.97 126.576C101.274 126.576 101.536 126.522 101.756 126.414C101.98 126.302 102.198 126.134 102.41 125.91V124.872ZM99.0138 122.202C99.7218 121.554 100.574 121.23 101.57 121.23C101.93 121.23 102.252 121.29 102.536 121.41C102.82 121.526 103.06 121.69 103.256 121.902C103.452 122.11 103.6 122.36 103.7 122.652C103.804 122.944 103.856 123.264 103.856 123.612V127.5H103.184C103.044 127.5 102.936 127.48 102.86 127.44C102.784 127.396 102.724 127.31 102.68 127.182L102.548 126.738C102.392 126.878 102.24 127.002 102.092 127.11C101.944 127.214 101.79 127.302 101.63 127.374C101.47 127.446 101.298 127.5 101.114 127.536C100.934 127.576 100.734 127.596 100.514 127.596C100.254 127.596 100.014 127.562 99.7938 127.494C99.5738 127.422 99.3838 127.316 99.2238 127.176C99.0638 127.036 98.9398 126.862 98.8518 126.654C98.7638 126.446 98.7198 126.204 98.7198 125.928C98.7198 125.772 98.7458 125.618 98.7978 125.466C98.8498 125.31 98.9338 125.162 99.0498 125.022C99.1698 124.882 99.3238 124.75 99.5118 124.626C99.6998 124.502 99.9298 124.394 100.202 124.302C100.478 124.21 100.798 124.136 101.162 124.08C101.526 124.02 101.942 123.984 102.41 123.972V123.612C102.41 123.2 102.322 122.896 102.146 122.7C101.97 122.5 101.716 122.4 101.384 122.4C101.144 122.4 100.944 122.428 100.784 122.484C100.628 122.54 100.49 122.604 100.37 122.676C100.25 122.744 100.14 122.806 100.04 122.862C99.9438 122.918 99.8358 122.946 99.7158 122.946C99.6118 122.946 99.5238 122.92 99.4518 122.868C99.3798 122.812 99.3218 122.748 99.2778 122.676L99.0138 122.202ZM102.074 119.346C102.194 119.346 102.288 119.314 102.356 119.25C102.424 119.182 102.458 119.062 102.458 118.89H103.358C103.358 119.114 103.326 119.318 103.262 119.502C103.202 119.682 103.118 119.838 103.01 119.97C102.902 120.098 102.772 120.198 102.62 120.27C102.472 120.338 102.308 120.372 102.128 120.372C101.984 120.372 101.85 120.346 101.726 120.294C101.602 120.242 101.486 120.186 101.378 120.126C101.27 120.066 101.168 120.01 101.072 119.958C100.98 119.906 100.894 119.88 100.814 119.88C100.698 119.88 100.606 119.916 100.538 119.988C100.474 120.056 100.442 120.174 100.442 120.342H99.5238C99.5238 120.118 99.5538 119.916 99.6138 119.736C99.6778 119.552 99.7658 119.396 99.8778 119.268C99.9898 119.136 100.12 119.034 100.268 118.962C100.42 118.89 100.584 118.854 100.76 118.854C100.904 118.854 101.038 118.88 101.162 118.932C101.29 118.984 101.408 119.04 101.516 119.1C101.624 119.16 101.724 119.216 101.816 119.268C101.908 119.32 101.994 119.346 102.074 119.346ZM107.976 121.248C108.432 121.248 108.846 121.322 109.218 121.47C109.594 121.618 109.914 121.828 110.178 122.1C110.446 122.372 110.652 122.704 110.796 123.096C110.94 123.488 111.012 123.926 111.012 124.41C111.012 124.898 110.94 125.338 110.796 125.73C110.652 126.122 110.446 126.456 110.178 126.732C109.914 127.008 109.594 127.22 109.218 127.368C108.846 127.516 108.432 127.59 107.976 127.59C107.516 127.59 107.098 127.516 106.722 127.368C106.346 127.22 106.024 127.008 105.756 126.732C105.492 126.456 105.286 126.122 105.138 125.73C104.994 125.338 104.922 124.898 104.922 124.41C104.922 123.926 104.994 123.488 105.138 123.096C105.286 122.704 105.492 122.372 105.756 122.1C106.024 121.828 106.346 121.618 106.722 121.47C107.098 121.322 107.516 121.248 107.976 121.248ZM107.976 126.45C108.488 126.45 108.866 126.278 109.11 125.934C109.358 125.59 109.482 125.086 109.482 124.422C109.482 123.758 109.358 123.252 109.11 122.904C108.866 122.556 108.488 122.382 107.976 122.382C107.456 122.382 107.07 122.558 106.818 122.91C106.57 123.258 106.446 123.762 106.446 124.422C106.446 125.082 106.57 125.586 106.818 125.934C107.07 126.278 107.456 126.45 107.976 126.45ZM118.924 122.916C118.756 122.712 118.572 122.568 118.372 122.484C118.176 122.4 117.964 122.358 117.736 122.358C117.512 122.358 117.31 122.4 117.13 122.484C116.95 122.568 116.796 122.696 116.668 122.868C116.54 123.036 116.442 123.252 116.374 123.516C116.306 123.776 116.272 124.084 116.272 124.44C116.272 124.8 116.3 125.106 116.356 125.358C116.416 125.606 116.5 125.81 116.608 125.97C116.716 126.126 116.848 126.24 117.004 126.312C117.16 126.38 117.334 126.414 117.526 126.414C117.834 126.414 118.096 126.35 118.312 126.222C118.528 126.094 118.732 125.912 118.924 125.676V122.916ZM120.406 118.584V127.5H119.5C119.304 127.5 119.18 127.41 119.128 127.23L119.002 126.636C118.754 126.92 118.468 127.15 118.144 127.326C117.824 127.502 117.45 127.59 117.022 127.59C116.686 127.59 116.378 127.52 116.098 127.38C115.818 127.24 115.576 127.038 115.372 126.774C115.172 126.506 115.016 126.176 114.904 125.784C114.796 125.392 114.742 124.944 114.742 124.44C114.742 123.984 114.804 123.56 114.928 123.168C115.052 122.776 115.23 122.436 115.462 122.148C115.694 121.86 115.972 121.636 116.296 121.476C116.62 121.312 116.984 121.23 117.388 121.23C117.732 121.23 118.026 121.284 118.27 121.392C118.514 121.5 118.732 121.646 118.924 121.83V118.584H120.406ZM123.405 121.344V127.5H121.917V121.344H123.405ZM123.609 119.55C123.609 119.678 123.583 119.798 123.531 119.91C123.479 120.022 123.409 120.12 123.321 120.204C123.237 120.288 123.137 120.356 123.021 120.408C122.905 120.456 122.781 120.48 122.649 120.48C122.521 120.48 122.399 120.456 122.283 120.408C122.171 120.356 122.073 120.288 121.989 120.204C121.905 120.12 121.837 120.022 121.785 119.91C121.737 119.798 121.713 119.678 121.713 119.55C121.713 119.418 121.737 119.294 121.785 119.178C121.837 119.062 121.905 118.962 121.989 118.878C122.073 118.794 122.171 118.728 122.283 118.68C122.399 118.628 122.521 118.602 122.649 118.602C122.781 118.602 122.905 118.628 123.021 118.68C123.137 118.728 123.237 118.794 123.321 118.878C123.409 118.962 123.479 119.062 123.531 119.178C123.583 119.294 123.609 119.418 123.609 119.55ZM128.672 122.544C128.632 122.608 128.59 122.654 128.546 122.682C128.502 122.706 128.446 122.718 128.378 122.718C128.306 122.718 128.228 122.698 128.144 122.658C128.064 122.618 127.97 122.574 127.862 122.526C127.754 122.474 127.63 122.428 127.49 122.388C127.354 122.348 127.192 122.328 127.004 122.328C126.712 122.328 126.482 122.39 126.314 122.514C126.15 122.638 126.068 122.8 126.068 123C126.068 123.132 126.11 123.244 126.194 123.336C126.282 123.424 126.396 123.502 126.536 123.57C126.68 123.638 126.842 123.7 127.022 123.756C127.202 123.808 127.384 123.866 127.568 123.93C127.756 123.994 127.94 124.068 128.12 124.152C128.3 124.232 128.46 124.336 128.6 124.464C128.744 124.588 128.858 124.738 128.942 124.914C129.03 125.09 129.074 125.302 129.074 125.55C129.074 125.846 129.02 126.12 128.912 126.372C128.808 126.62 128.652 126.836 128.444 127.02C128.236 127.2 127.978 127.342 127.67 127.446C127.366 127.546 127.014 127.596 126.614 127.596C126.402 127.596 126.194 127.576 125.99 127.536C125.79 127.5 125.596 127.448 125.408 127.38C125.224 127.312 125.052 127.232 124.892 127.14C124.736 127.048 124.598 126.948 124.478 126.84L124.82 126.276C124.864 126.208 124.916 126.156 124.976 126.12C125.036 126.084 125.112 126.066 125.204 126.066C125.296 126.066 125.382 126.092 125.462 126.144C125.546 126.196 125.642 126.252 125.75 126.312C125.858 126.372 125.984 126.428 126.128 126.48C126.276 126.532 126.462 126.558 126.686 126.558C126.862 126.558 127.012 126.538 127.136 126.498C127.264 126.454 127.368 126.398 127.448 126.33C127.532 126.262 127.592 126.184 127.628 126.096C127.668 126.004 127.688 125.91 127.688 125.814C127.688 125.67 127.644 125.552 127.556 125.46C127.472 125.368 127.358 125.288 127.214 125.22C127.074 125.152 126.912 125.092 126.728 125.04C126.548 124.984 126.362 124.924 126.17 124.86C125.982 124.796 125.796 124.722 125.612 124.638C125.432 124.55 125.27 124.44 125.126 124.308C124.986 124.176 124.872 124.014 124.784 123.822C124.7 123.63 124.658 123.398 124.658 123.126C124.658 122.874 124.708 122.634 124.808 122.406C124.908 122.178 125.054 121.98 125.246 121.812C125.442 121.64 125.684 121.504 125.972 121.404C126.264 121.3 126.6 121.248 126.98 121.248C127.404 121.248 127.79 121.318 128.138 121.458C128.486 121.598 128.776 121.782 129.008 122.01L128.672 122.544ZM131.671 125.904C131.839 126.108 132.021 126.252 132.217 126.336C132.417 126.42 132.633 126.462 132.865 126.462C133.089 126.462 133.291 126.42 133.471 126.336C133.651 126.252 133.803 126.124 133.927 125.952C134.055 125.78 134.153 125.564 134.221 125.304C134.289 125.04 134.323 124.73 134.323 124.374C134.323 124.014 134.293 123.71 134.233 123.462C134.177 123.21 134.095 123.006 133.987 122.85C133.879 122.694 133.747 122.58 133.591 122.508C133.439 122.436 133.265 122.4 133.069 122.4C132.761 122.4 132.499 122.466 132.283 122.598C132.067 122.726 131.863 122.908 131.671 123.144V125.904ZM131.593 122.184C131.845 121.9 132.131 121.67 132.451 121.494C132.771 121.318 133.147 121.23 133.579 121.23C133.915 121.23 134.221 121.3 134.497 121.44C134.777 121.58 135.017 121.784 135.217 122.052C135.421 122.316 135.577 122.644 135.685 123.036C135.797 123.424 135.853 123.87 135.853 124.374C135.853 124.834 135.791 125.26 135.667 125.652C135.543 126.044 135.365 126.384 135.133 126.672C134.905 126.96 134.627 127.186 134.299 127.35C133.975 127.51 133.611 127.59 133.207 127.59C132.863 127.59 132.569 127.538 132.325 127.434C132.081 127.326 131.863 127.178 131.671 126.99V129.51H130.189V121.344H131.095C131.287 121.344 131.413 121.434 131.473 121.614L131.593 122.184ZM139.733 121.248C140.189 121.248 140.603 121.322 140.975 121.47C141.351 121.618 141.671 121.828 141.935 122.1C142.203 122.372 142.409 122.704 142.553 123.096C142.697 123.488 142.769 123.926 142.769 124.41C142.769 124.898 142.697 125.338 142.553 125.73C142.409 126.122 142.203 126.456 141.935 126.732C141.671 127.008 141.351 127.22 140.975 127.368C140.603 127.516 140.189 127.59 139.733 127.59C139.273 127.59 138.855 127.516 138.479 127.368C138.103 127.22 137.781 127.008 137.513 126.732C137.249 126.456 137.043 126.122 136.895 125.73C136.751 125.338 136.679 124.898 136.679 124.41C136.679 123.926 136.751 123.488 136.895 123.096C137.043 122.704 137.249 122.372 137.513 122.1C137.781 121.828 138.103 121.618 138.479 121.47C138.855 121.322 139.273 121.248 139.733 121.248ZM139.733 126.45C140.245 126.45 140.623 126.278 140.867 125.934C141.115 125.59 141.239 125.086 141.239 124.422C141.239 123.758 141.115 123.252 140.867 122.904C140.623 122.556 140.245 122.382 139.733 122.382C139.213 122.382 138.827 122.558 138.575 122.91C138.327 123.258 138.203 123.762 138.203 124.422C138.203 125.082 138.327 125.586 138.575 125.934C138.827 126.278 139.213 126.45 139.733 126.45ZM145.286 122.1C145.41 121.976 145.54 121.862 145.676 121.758C145.816 121.65 145.962 121.56 146.114 121.488C146.27 121.412 146.436 121.354 146.612 121.314C146.788 121.27 146.98 121.248 147.188 121.248C147.524 121.248 147.822 121.306 148.082 121.422C148.342 121.534 148.558 121.694 148.73 121.902C148.906 122.106 149.038 122.352 149.126 122.64C149.218 122.924 149.264 123.238 149.264 123.582V127.5H147.782V123.582C147.782 123.206 147.696 122.916 147.524 122.712C147.352 122.504 147.09 122.4 146.738 122.4C146.482 122.4 146.242 122.458 146.018 122.574C145.794 122.69 145.582 122.848 145.382 123.048V127.5H143.9V121.344H144.806C144.998 121.344 145.124 121.434 145.184 121.614L145.286 122.1ZM152.209 121.344V127.5H150.727V121.344H152.209ZM153.589 118.728L152.107 120.294C152.031 120.374 151.957 120.43 151.885 120.462C151.817 120.49 151.727 120.504 151.615 120.504H150.727L151.579 119.046C151.639 118.942 151.709 118.864 151.789 118.812C151.869 118.756 151.989 118.728 152.149 118.728H153.589ZM159.282 121.344L156.84 127.5H155.496L153.054 121.344H154.278C154.39 121.344 154.482 121.37 154.554 121.422C154.63 121.474 154.68 121.54 154.704 121.62L155.892 124.908C155.956 125.1 156.012 125.288 156.06 125.472C156.108 125.656 156.15 125.84 156.186 126.024C156.226 125.84 156.27 125.656 156.318 125.472C156.366 125.288 156.424 125.1 156.492 124.908L157.704 121.62C157.732 121.54 157.782 121.474 157.854 121.422C157.926 121.37 158.012 121.344 158.112 121.344H159.282ZM163.85 123.714C163.85 123.522 163.822 123.342 163.766 123.174C163.714 123.002 163.634 122.852 163.526 122.724C163.418 122.596 163.28 122.496 163.112 122.424C162.948 122.348 162.756 122.31 162.536 122.31C162.108 122.31 161.77 122.432 161.522 122.676C161.278 122.92 161.122 123.266 161.054 123.714H163.85ZM161.024 124.608C161.048 124.924 161.104 125.198 161.192 125.43C161.28 125.658 161.396 125.848 161.54 126C161.684 126.148 161.854 126.26 162.05 126.336C162.25 126.408 162.47 126.444 162.71 126.444C162.95 126.444 163.156 126.416 163.328 126.36C163.504 126.304 163.656 126.242 163.784 126.174C163.916 126.106 164.03 126.044 164.126 125.988C164.226 125.932 164.322 125.904 164.414 125.904C164.538 125.904 164.63 125.95 164.69 126.042L165.116 126.582C164.952 126.774 164.768 126.936 164.564 127.068C164.36 127.196 164.146 127.3 163.922 127.38C163.702 127.456 163.476 127.51 163.244 127.542C163.016 127.574 162.794 127.59 162.578 127.59C162.15 127.59 161.752 127.52 161.384 127.38C161.016 127.236 160.696 127.026 160.424 126.75C160.152 126.47 159.938 126.126 159.782 125.718C159.626 125.306 159.548 124.83 159.548 124.29C159.548 123.87 159.616 123.476 159.752 123.108C159.888 122.736 160.082 122.414 160.334 122.142C160.59 121.866 160.9 121.648 161.264 121.488C161.632 121.328 162.046 121.248 162.506 121.248C162.894 121.248 163.252 121.31 163.58 121.434C163.908 121.558 164.19 121.74 164.426 121.98C164.662 122.216 164.846 122.508 164.978 122.856C165.114 123.2 165.182 123.594 165.182 124.038C165.182 124.262 165.158 124.414 165.11 124.494C165.062 124.57 164.97 124.608 164.834 124.608H161.024ZM167.795 118.584V127.5H166.312V118.584H167.795Z"
        fill="#151619"
    />
<path
        d="M37.9148 140.885C37.9148 141.415 37.8265 141.907 37.6498 142.36C37.4765 142.81 37.2298 143.2 36.9098 143.53C36.5898 143.86 36.2048 144.118 35.7548 144.305C35.3048 144.488 34.8048 144.58 34.2548 144.58C33.7082 144.58 33.2098 144.488 32.7598 144.305C32.3098 144.118 31.9232 143.86 31.5998 143.53C31.2798 143.2 31.0315 142.81 30.8548 142.36C30.6782 141.907 30.5898 141.415 30.5898 140.885C30.5898 140.355 30.6782 139.865 30.8548 139.415C31.0315 138.962 31.2798 138.57 31.5998 138.24C31.9232 137.91 32.3098 137.653 32.7598 137.47C33.2098 137.283 33.7082 137.19 34.2548 137.19C34.6215 137.19 34.9665 137.233 35.2898 137.32C35.6132 137.403 35.9098 137.523 36.1798 137.68C36.4498 137.833 36.6915 138.022 36.9048 138.245C37.1215 138.465 37.3048 138.712 37.4548 138.985C37.6048 139.258 37.7182 139.555 37.7948 139.875C37.8748 140.195 37.9148 140.532 37.9148 140.885ZM36.5398 140.885C36.5398 140.488 36.4865 140.133 36.3798 139.82C36.2732 139.503 36.1215 139.235 35.9248 139.015C35.7282 138.795 35.4882 138.627 35.2048 138.51C34.9248 138.393 34.6082 138.335 34.2548 138.335C33.9015 138.335 33.5832 138.393 33.2998 138.51C33.0198 138.627 32.7798 138.795 32.5798 139.015C32.3832 139.235 32.2315 139.503 32.1248 139.82C32.0182 140.133 31.9648 140.488 31.9648 140.885C31.9648 141.282 32.0182 141.638 32.1248 141.955C32.2315 142.268 32.3832 142.535 32.5798 142.755C32.7798 142.972 33.0198 143.138 33.2998 143.255C33.5832 143.372 33.9015 143.43 34.2548 143.43C34.6082 143.43 34.9248 143.372 35.2048 143.255C35.4882 143.138 35.7282 142.972 35.9248 142.755C36.1215 142.535 36.2732 142.268 36.3798 141.955C36.4865 141.638 36.5398 141.282 36.5398 140.885ZM45.0077 140.455C44.971 140.502 44.9343 140.538 44.8977 140.565C44.8643 140.592 44.8143 140.605 44.7477 140.605C44.6843 140.605 44.6227 140.587 44.5627 140.55C44.5027 140.51 44.431 140.467 44.3477 140.42C44.2643 140.37 44.1643 140.327 44.0477 140.29C43.9343 140.25 43.7927 140.23 43.6227 140.23C43.406 140.23 43.216 140.27 43.0527 140.35C42.8893 140.427 42.7527 140.538 42.6427 140.685C42.536 140.832 42.456 141.01 42.4027 141.22C42.3493 141.427 42.3227 141.662 42.3227 141.925C42.3227 142.198 42.351 142.442 42.4077 142.655C42.4677 142.868 42.5527 143.048 42.6627 143.195C42.7727 143.338 42.906 143.448 43.0627 143.525C43.2193 143.598 43.396 143.635 43.5927 143.635C43.7893 143.635 43.9477 143.612 44.0677 143.565C44.191 143.515 44.2943 143.462 44.3777 143.405C44.461 143.345 44.5327 143.292 44.5927 143.245C44.656 143.195 44.726 143.17 44.8027 143.17C44.9027 143.17 44.9777 143.208 45.0277 143.285L45.3827 143.735C45.246 143.895 45.0977 144.03 44.9377 144.14C44.7777 144.247 44.611 144.333 44.4377 144.4C44.2677 144.463 44.091 144.508 43.9077 144.535C43.7277 144.562 43.5477 144.575 43.3677 144.575C43.051 144.575 42.7527 144.517 42.4727 144.4C42.1927 144.28 41.9477 144.107 41.7377 143.88C41.5277 143.653 41.361 143.377 41.2377 143.05C41.1177 142.72 41.0577 142.345 41.0577 141.925C41.0577 141.548 41.111 141.2 41.2177 140.88C41.3277 140.557 41.4877 140.278 41.6977 140.045C41.9077 139.808 42.1677 139.623 42.4777 139.49C42.7877 139.357 43.1443 139.29 43.5477 139.29C43.931 139.29 44.266 139.352 44.5527 139.475C44.8427 139.598 45.1027 139.775 45.3327 140.005L45.0077 140.455ZM48.339 139.29C48.719 139.29 49.064 139.352 49.374 139.475C49.6873 139.598 49.954 139.773 50.174 140C50.3973 140.227 50.569 140.503 50.689 140.83C50.809 141.157 50.869 141.522 50.869 141.925C50.869 142.332 50.809 142.698 50.689 143.025C50.569 143.352 50.3973 143.63 50.174 143.86C49.954 144.09 49.6873 144.267 49.374 144.39C49.064 144.513 48.719 144.575 48.339 144.575C47.9557 144.575 47.6073 144.513 47.294 144.39C46.9807 144.267 46.7123 144.09 46.489 143.86C46.269 143.63 46.0973 143.352 45.974 143.025C45.854 142.698 45.794 142.332 45.794 141.925C45.794 141.522 45.854 141.157 45.974 140.83C46.0973 140.503 46.269 140.227 46.489 140C46.7123 139.773 46.9807 139.598 47.294 139.475C47.6073 139.352 47.9557 139.29 48.339 139.29ZM48.339 143.625C48.7657 143.625 49.0807 143.482 49.284 143.195C49.4907 142.908 49.594 142.488 49.594 141.935C49.594 141.382 49.4907 140.96 49.284 140.67C49.0807 140.38 48.7657 140.235 48.339 140.235C47.9057 140.235 47.584 140.382 47.374 140.675C47.1673 140.965 47.064 141.385 47.064 141.935C47.064 142.485 47.1673 142.905 47.374 143.195C47.584 143.482 47.9057 143.625 48.339 143.625ZM50.069 137.19L48.834 138.495C48.7707 138.562 48.709 138.608 48.649 138.635C48.5923 138.658 48.5173 138.67 48.424 138.67H47.684L48.394 137.455C48.444 137.368 48.5023 137.303 48.569 137.26C48.6357 137.213 48.7357 137.19 48.869 137.19H50.069ZM55.0312 140.68C54.8912 140.51 54.7378 140.39 54.5712 140.32C54.4078 140.25 54.2312 140.215 54.0412 140.215C53.8545 140.215 53.6862 140.25 53.5362 140.32C53.3862 140.39 53.2578 140.497 53.1512 140.64C53.0445 140.78 52.9628 140.96 52.9062 141.18C52.8495 141.397 52.8212 141.653 52.8212 141.95C52.8212 142.25 52.8445 142.505 52.8912 142.715C52.9412 142.922 53.0112 143.092 53.1012 143.225C53.1912 143.355 53.3012 143.45 53.4312 143.51C53.5612 143.567 53.7062 143.595 53.8662 143.595C54.1228 143.595 54.3412 143.542 54.5212 143.435C54.7012 143.328 54.8712 143.177 55.0312 142.98V140.68ZM56.2662 137.07V144.5H55.5112C55.3478 144.5 55.2445 144.425 55.2012 144.275L55.0962 143.78C54.8895 144.017 54.6512 144.208 54.3812 144.355C54.1145 144.502 53.8028 144.575 53.4462 144.575C53.1662 144.575 52.9095 144.517 52.6762 144.4C52.4428 144.283 52.2412 144.115 52.0712 143.895C51.9045 143.672 51.7745 143.397 51.6812 143.07C51.5912 142.743 51.5462 142.37 51.5462 141.95C51.5462 141.57 51.5978 141.217 51.7012 140.89C51.8045 140.563 51.9528 140.28 52.1462 140.04C52.3395 139.8 52.5712 139.613 52.8412 139.48C53.1112 139.343 53.4145 139.275 53.7512 139.275C54.0378 139.275 54.2828 139.32 54.4862 139.41C54.6895 139.5 54.8712 139.622 55.0312 139.775V137.07H56.2662ZM58.765 139.37V144.5H57.525V139.37H58.765ZM58.935 137.875C58.935 137.982 58.9133 138.082 58.87 138.175C58.8267 138.268 58.7683 138.35 58.695 138.42C58.625 138.49 58.5417 138.547 58.445 138.59C58.3483 138.63 58.245 138.65 58.135 138.65C58.0283 138.65 57.9267 138.63 57.83 138.59C57.7367 138.547 57.655 138.49 57.585 138.42C57.515 138.35 57.4583 138.268 57.415 138.175C57.375 138.082 57.355 137.982 57.355 137.875C57.355 137.765 57.375 137.662 57.415 137.565C57.4583 137.468 57.515 137.385 57.585 137.315C57.655 137.245 57.7367 137.19 57.83 137.15C57.9267 137.107 58.0283 137.085 58.135 137.085C58.245 137.085 58.3483 137.107 58.445 137.15C58.5417 137.19 58.625 137.245 58.695 137.315C58.7683 137.385 58.8267 137.468 58.87 137.565C58.9133 137.662 58.935 137.765 58.935 137.875ZM61.8991 141.81C62.0524 141.81 62.1857 141.79 62.2991 141.75C62.4124 141.707 62.5057 141.648 62.5791 141.575C62.6557 141.502 62.7124 141.413 62.7491 141.31C62.7891 141.207 62.8091 141.093 62.8091 140.97C62.8091 140.717 62.7324 140.517 62.5791 140.37C62.4291 140.22 62.2024 140.145 61.8991 140.145C61.5957 140.145 61.3674 140.22 61.2141 140.37C61.0641 140.517 60.9891 140.717 60.9891 140.97C60.9891 141.09 61.0074 141.202 61.0441 141.305C61.0841 141.408 61.1407 141.498 61.2141 141.575C61.2907 141.648 61.3857 141.707 61.4991 141.75C61.6157 141.79 61.7491 141.81 61.8991 141.81ZM63.2941 144.73C63.2941 144.63 63.2641 144.548 63.2041 144.485C63.1441 144.422 63.0624 144.373 62.9591 144.34C62.8557 144.303 62.7341 144.277 62.5941 144.26C62.4574 144.243 62.3107 144.232 62.1541 144.225C62.0007 144.215 61.8407 144.207 61.6741 144.2C61.5107 144.193 61.3507 144.18 61.1941 144.16C61.0574 144.237 60.9457 144.327 60.8591 144.43C60.7757 144.533 60.7341 144.653 60.7341 144.79C60.7341 144.88 60.7557 144.963 60.7991 145.04C60.8457 145.12 60.9174 145.188 61.0141 145.245C61.1141 145.302 61.2424 145.345 61.3991 145.375C61.5557 145.408 61.7474 145.425 61.9741 145.425C62.2041 145.425 62.4024 145.407 62.5691 145.37C62.7357 145.337 62.8724 145.288 62.9791 145.225C63.0891 145.165 63.1691 145.092 63.2191 145.005C63.2691 144.922 63.2941 144.83 63.2941 144.73ZM64.5241 139.545V140.005C64.5241 140.152 64.4357 140.242 64.2591 140.275L63.7991 140.36C63.8691 140.537 63.9041 140.73 63.9041 140.94C63.9041 141.193 63.8524 141.423 63.7491 141.63C63.6491 141.833 63.5091 142.007 63.3291 142.15C63.1491 142.293 62.9357 142.405 62.6891 142.485C62.4457 142.562 62.1824 142.6 61.8991 142.6C61.7991 142.6 61.7024 142.595 61.6091 142.585C61.5157 142.575 61.4241 142.562 61.3341 142.545C61.1741 142.642 61.0941 142.75 61.0941 142.87C61.0941 142.973 61.1407 143.05 61.2341 143.1C61.3307 143.147 61.4574 143.18 61.6141 143.2C61.7707 143.22 61.9491 143.233 62.1491 143.24C62.3491 143.243 62.5541 143.253 62.7641 143.27C62.9741 143.287 63.1791 143.317 63.3791 143.36C63.5791 143.4 63.7574 143.465 63.9141 143.555C64.0707 143.645 64.1957 143.768 64.2891 143.925C64.3857 144.078 64.4341 144.277 64.4341 144.52C64.4341 144.747 64.3774 144.967 64.2641 145.18C64.1541 145.393 63.9924 145.583 63.7791 145.75C63.5691 145.917 63.3091 146.05 62.9991 146.15C62.6924 146.253 62.3424 146.305 61.9491 146.305C61.5624 146.305 61.2257 146.267 60.9391 146.19C60.6524 146.117 60.4141 146.017 60.2241 145.89C60.0341 145.767 59.8924 145.623 59.7991 145.46C59.7057 145.297 59.6591 145.127 59.6591 144.95C59.6591 144.71 59.7307 144.51 59.8741 144.35C60.0207 144.187 60.2207 144.057 60.4741 143.96C60.3374 143.89 60.2291 143.797 60.1491 143.68C60.0691 143.563 60.0291 143.41 60.0291 143.22C60.0291 143.143 60.0424 143.065 60.0691 142.985C60.0991 142.902 60.1407 142.82 60.1941 142.74C60.2507 142.66 60.3207 142.585 60.4041 142.515C60.4874 142.442 60.5857 142.377 60.6991 142.32C60.4391 142.18 60.2341 141.993 60.0841 141.76C59.9374 141.527 59.8641 141.253 59.8641 140.94C59.8641 140.687 59.9141 140.458 60.0141 140.255C60.1174 140.048 60.2591 139.873 60.4391 139.73C60.6224 139.583 60.8374 139.472 61.0841 139.395C61.3341 139.318 61.6057 139.28 61.8991 139.28C62.1191 139.28 62.3257 139.303 62.5191 139.35C62.7124 139.393 62.8891 139.458 63.0491 139.545H64.5241ZM67.4894 139.29C67.8694 139.29 68.2144 139.352 68.5244 139.475C68.8377 139.598 69.1044 139.773 69.3244 140C69.5477 140.227 69.7194 140.503 69.8394 140.83C69.9594 141.157 70.0194 141.522 70.0194 141.925C70.0194 142.332 69.9594 142.698 69.8394 143.025C69.7194 143.352 69.5477 143.63 69.3244 143.86C69.1044 144.09 68.8377 144.267 68.5244 144.39C68.2144 144.513 67.8694 144.575 67.4894 144.575C67.106 144.575 66.7577 144.513 66.4444 144.39C66.131 144.267 65.8627 144.09 65.6394 143.86C65.4194 143.63 65.2477 143.352 65.1244 143.025C65.0044 142.698 64.9444 142.332 64.9444 141.925C64.9444 141.522 65.0044 141.157 65.1244 140.83C65.2477 140.503 65.4194 140.227 65.6394 140C65.8627 139.773 66.131 139.598 66.4444 139.475C66.7577 139.352 67.106 139.29 67.4894 139.29ZM67.4894 143.625C67.916 143.625 68.231 143.482 68.4344 143.195C68.641 142.908 68.7444 142.488 68.7444 141.935C68.7444 141.382 68.641 140.96 68.4344 140.67C68.231 140.38 67.916 140.235 67.4894 140.235C67.056 140.235 66.7344 140.382 66.5244 140.675C66.3177 140.965 66.2144 141.385 66.2144 141.935C66.2144 142.485 66.3177 142.905 66.5244 143.195C66.7344 143.482 67.056 143.625 67.4894 143.625ZM76.6982 141.345C76.6982 141.185 76.6749 141.035 76.6282 140.895C76.5849 140.752 76.5182 140.627 76.4282 140.52C76.3382 140.413 76.2232 140.33 76.0832 140.27C75.9465 140.207 75.7865 140.175 75.6032 140.175C75.2465 140.175 74.9649 140.277 74.7582 140.48C74.5549 140.683 74.4249 140.972 74.3682 141.345H76.6982ZM74.3432 142.09C74.3632 142.353 74.4099 142.582 74.4832 142.775C74.5565 142.965 74.6532 143.123 74.7732 143.25C74.8932 143.373 75.0349 143.467 75.1982 143.53C75.3649 143.59 75.5482 143.62 75.7482 143.62C75.9482 143.62 76.1199 143.597 76.2632 143.55C76.4099 143.503 76.5365 143.452 76.6432 143.395C76.7532 143.338 76.8482 143.287 76.9282 143.24C77.0115 143.193 77.0915 143.17 77.1682 143.17C77.2715 143.17 77.3482 143.208 77.3982 143.285L77.7532 143.735C77.6165 143.895 77.4632 144.03 77.2932 144.14C77.1232 144.247 76.9449 144.333 76.7582 144.4C76.5749 144.463 76.3865 144.508 76.1932 144.535C76.0032 144.562 75.8182 144.575 75.6382 144.575C75.2815 144.575 74.9499 144.517 74.6432 144.4C74.3365 144.28 74.0699 144.105 73.8432 143.875C73.6165 143.642 73.4382 143.355 73.3082 143.015C73.1782 142.672 73.1132 142.275 73.1132 141.825C73.1132 141.475 73.1699 141.147 73.2832 140.84C73.3965 140.53 73.5582 140.262 73.7682 140.035C73.9815 139.805 74.2399 139.623 74.5432 139.49C74.8499 139.357 75.1949 139.29 75.5782 139.29C75.9015 139.29 76.1999 139.342 76.4732 139.445C76.7465 139.548 76.9815 139.7 77.1782 139.9C77.3749 140.097 77.5282 140.34 77.6382 140.63C77.7515 140.917 77.8082 141.245 77.8082 141.615C77.8082 141.802 77.7882 141.928 77.7482 141.995C77.7082 142.058 77.6315 142.09 77.5182 142.09H74.3432ZM83.2369 144.5H82.0469C81.9569 144.5 81.8835 144.477 81.8269 144.43C81.7735 144.383 81.7285 144.33 81.6919 144.27L80.6069 142.485C80.5902 142.542 80.5702 142.595 80.5469 142.645C80.5269 142.695 80.5035 142.742 80.4769 142.785L79.5169 144.27C79.4802 144.327 79.4352 144.38 79.3819 144.43C79.3285 144.477 79.2619 144.5 79.1819 144.5H78.0769L79.8369 141.855L78.1469 139.37H79.3369C79.4269 139.37 79.4935 139.383 79.5369 139.41C79.5802 139.433 79.6185 139.473 79.6519 139.53L80.7269 141.24C80.7635 141.127 80.8152 141.015 80.8819 140.905L81.7469 139.555C81.8202 139.432 81.9152 139.37 82.0319 139.37H83.1669L81.4819 141.8L83.2369 144.5ZM85.1165 143.17C85.2565 143.34 85.4082 143.46 85.5715 143.53C85.7382 143.6 85.9182 143.635 86.1115 143.635C86.2982 143.635 86.4665 143.6 86.6165 143.53C86.7665 143.46 86.8932 143.353 86.9965 143.21C87.1032 143.067 87.1848 142.887 87.2415 142.67C87.2982 142.45 87.3265 142.192 87.3265 141.895C87.3265 141.595 87.3015 141.342 87.2515 141.135C87.2048 140.925 87.1365 140.755 87.0465 140.625C86.9565 140.495 86.8465 140.4 86.7165 140.34C86.5898 140.28 86.4448 140.25 86.2815 140.25C86.0248 140.25 85.8065 140.305 85.6265 140.415C85.4465 140.522 85.2765 140.673 85.1165 140.87V143.17ZM85.0515 140.07C85.2615 139.833 85.4998 139.642 85.7665 139.495C86.0332 139.348 86.3465 139.275 86.7065 139.275C86.9865 139.275 87.2415 139.333 87.4715 139.45C87.7048 139.567 87.9048 139.737 88.0715 139.96C88.2415 140.18 88.3715 140.453 88.4615 140.78C88.5548 141.103 88.6015 141.475 88.6015 141.895C88.6015 142.278 88.5498 142.633 88.4465 142.96C88.3432 143.287 88.1948 143.57 88.0015 143.81C87.8115 144.05 87.5798 144.238 87.3065 144.375C87.0365 144.508 86.7332 144.575 86.3965 144.575C86.1098 144.575 85.8648 144.532 85.6615 144.445C85.4582 144.355 85.2765 144.232 85.1165 144.075V146.175H83.8815V139.37H84.6365C84.7965 139.37 84.9015 139.445 84.9515 139.595L85.0515 140.07ZM90.8451 139.37V144.5H89.6051V139.37H90.8451ZM91.0151 137.875C91.0151 137.982 90.9934 138.082 90.9501 138.175C90.9067 138.268 90.8484 138.35 90.7751 138.42C90.7051 138.49 90.6217 138.547 90.5251 138.59C90.4284 138.63 90.3251 138.65 90.2151 138.65C90.1084 138.65 90.0067 138.63 89.9101 138.59C89.8167 138.547 89.7351 138.49 89.6651 138.42C89.5951 138.35 89.5384 138.268 89.4951 138.175C89.4551 138.082 89.4351 137.982 89.4351 137.875C89.4351 137.765 89.4551 137.662 89.4951 137.565C89.5384 137.468 89.5951 137.385 89.6651 137.315C89.7351 137.245 89.8167 137.19 89.9101 137.15C90.0067 137.107 90.1084 137.085 90.2151 137.085C90.3251 137.085 90.4284 137.107 90.5251 137.15C90.6217 137.19 90.7051 137.245 90.7751 137.315C90.8484 137.385 90.9067 137.468 90.9501 137.565C90.9934 137.662 91.0151 137.765 91.0151 137.875ZM93.2691 140.26C93.4291 139.953 93.6191 139.713 93.8391 139.54C94.0591 139.363 94.3191 139.275 94.6191 139.275C94.8558 139.275 95.0458 139.327 95.1891 139.43L95.1091 140.355C95.0925 140.415 95.0675 140.458 95.0341 140.485C95.0041 140.508 94.9625 140.52 94.9091 140.52C94.8591 140.52 94.7841 140.512 94.6841 140.495C94.5875 140.478 94.4925 140.47 94.3991 140.47C94.2625 140.47 94.1408 140.49 94.0341 140.53C93.9275 140.57 93.8308 140.628 93.7441 140.705C93.6608 140.778 93.5858 140.868 93.5191 140.975C93.4558 141.082 93.3958 141.203 93.3391 141.34V144.5H92.1041V139.37H92.8291C92.9558 139.37 93.0441 139.393 93.0941 139.44C93.1441 139.483 93.1775 139.563 93.1941 139.68L93.2691 140.26ZM97.9581 139.29C98.3381 139.29 98.6831 139.352 98.9931 139.475C99.3065 139.598 99.5731 139.773 99.7931 140C100.016 140.227 100.188 140.503 100.308 140.83C100.428 141.157 100.488 141.522 100.488 141.925C100.488 142.332 100.428 142.698 100.308 143.025C100.188 143.352 100.016 143.63 99.7931 143.86C99.5731 144.09 99.3065 144.267 98.9931 144.39C98.6831 144.513 98.3381 144.575 97.9581 144.575C97.5748 144.575 97.2265 144.513 96.9131 144.39C96.5998 144.267 96.3315 144.09 96.1081 143.86C95.8881 143.63 95.7165 143.352 95.5931 143.025C95.4731 142.698 95.4131 142.332 95.4131 141.925C95.4131 141.522 95.4731 141.157 95.5931 140.83C95.7165 140.503 95.8881 140.227 96.1081 140C96.3315 139.773 96.5998 139.598 96.9131 139.475C97.2265 139.352 97.5748 139.29 97.9581 139.29ZM97.9581 143.625C98.3848 143.625 98.6998 143.482 98.9031 143.195C99.1098 142.908 99.2131 142.488 99.2131 141.935C99.2131 141.382 99.1098 140.96 98.9031 140.67C98.6998 140.38 98.3848 140.235 97.9581 140.235C97.5248 140.235 97.2031 140.382 96.9931 140.675C96.7865 140.965 96.6831 141.385 96.6831 141.935C96.6831 142.485 96.7865 142.905 96.9931 143.195C97.2031 143.482 97.5248 143.625 97.9581 143.625ZM105.85 139.37V144.5H105.095C104.932 144.5 104.829 144.425 104.785 144.275L104.7 143.865C104.49 144.078 104.259 144.252 104.005 144.385C103.752 144.515 103.454 144.58 103.11 144.58C102.83 144.58 102.582 144.533 102.365 144.44C102.152 144.343 101.972 144.208 101.825 144.035C101.679 143.862 101.567 143.657 101.49 143.42C101.417 143.18 101.38 142.917 101.38 142.63V139.37H102.615V142.63C102.615 142.943 102.687 143.187 102.83 143.36C102.977 143.53 103.195 143.615 103.485 143.615C103.699 143.615 103.899 143.568 104.085 143.475C104.272 143.378 104.449 143.247 104.615 143.08V139.37H105.85ZM111.776 139.29C112.156 139.29 112.501 139.352 112.811 139.475C113.125 139.598 113.391 139.773 113.611 140C113.835 140.227 114.006 140.503 114.126 140.83C114.246 141.157 114.306 141.522 114.306 141.925C114.306 142.332 114.246 142.698 114.126 143.025C114.006 143.352 113.835 143.63 113.611 143.86C113.391 144.09 113.125 144.267 112.811 144.39C112.501 144.513 112.156 144.575 111.776 144.575C111.393 144.575 111.045 144.513 110.731 144.39C110.418 144.267 110.15 144.09 109.926 143.86C109.706 143.63 109.535 143.352 109.411 143.025C109.291 142.698 109.231 142.332 109.231 141.925C109.231 141.522 109.291 141.157 109.411 140.83C109.535 140.503 109.706 140.227 109.926 140C110.15 139.773 110.418 139.598 110.731 139.475C111.045 139.352 111.393 139.29 111.776 139.29ZM111.776 143.625C112.203 143.625 112.518 143.482 112.721 143.195C112.928 142.908 113.031 142.488 113.031 141.935C113.031 141.382 112.928 140.96 112.721 140.67C112.518 140.38 112.203 140.235 111.776 140.235C111.343 140.235 111.021 140.382 110.811 140.675C110.605 140.965 110.501 141.385 110.501 141.935C110.501 142.485 110.605 142.905 110.811 143.195C111.021 143.482 111.343 143.625 111.776 143.625ZM119.669 139.37V144.5H118.914C118.75 144.5 118.647 144.425 118.604 144.275L118.519 143.865C118.309 144.078 118.077 144.252 117.824 144.385C117.57 144.515 117.272 144.58 116.929 144.58C116.649 144.58 116.4 144.533 116.184 144.44C115.97 144.343 115.79 144.208 115.644 144.035C115.497 143.862 115.385 143.657 115.309 143.42C115.235 143.18 115.199 142.917 115.199 142.63V139.37H116.434V142.63C116.434 142.943 116.505 143.187 116.649 143.36C116.795 143.53 117.014 143.615 117.304 143.615C117.517 143.615 117.717 143.568 117.904 143.475C118.09 143.378 118.267 143.247 118.434 143.08V139.37H119.669ZM126.035 142.31C125.678 142.327 125.378 142.358 125.135 142.405C124.892 142.448 124.697 142.505 124.55 142.575C124.403 142.645 124.298 142.727 124.235 142.82C124.172 142.913 124.14 143.015 124.14 143.125C124.14 143.342 124.203 143.497 124.33 143.59C124.46 143.683 124.628 143.73 124.835 143.73C125.088 143.73 125.307 143.685 125.49 143.595C125.677 143.502 125.858 143.362 126.035 143.175V142.31ZM123.205 140.085C123.795 139.545 124.505 139.275 125.335 139.275C125.635 139.275 125.903 139.325 126.14 139.425C126.377 139.522 126.577 139.658 126.74 139.835C126.903 140.008 127.027 140.217 127.11 140.46C127.197 140.703 127.24 140.97 127.24 141.26V144.5H126.68C126.563 144.5 126.473 144.483 126.41 144.45C126.347 144.413 126.297 144.342 126.26 144.235L126.15 143.865C126.02 143.982 125.893 144.085 125.77 144.175C125.647 144.262 125.518 144.335 125.385 144.395C125.252 144.455 125.108 144.5 124.955 144.53C124.805 144.563 124.638 144.58 124.455 144.58C124.238 144.58 124.038 144.552 123.855 144.495C123.672 144.435 123.513 144.347 123.38 144.23C123.247 144.113 123.143 143.968 123.07 143.795C122.997 143.622 122.96 143.42 122.96 143.19C122.96 143.06 122.982 142.932 123.025 142.805C123.068 142.675 123.138 142.552 123.235 142.435C123.335 142.318 123.463 142.208 123.62 142.105C123.777 142.002 123.968 141.912 124.195 141.835C124.425 141.758 124.692 141.697 124.995 141.65C125.298 141.6 125.645 141.57 126.035 141.56V141.26C126.035 140.917 125.962 140.663 125.815 140.5C125.668 140.333 125.457 140.25 125.18 140.25C124.98 140.25 124.813 140.273 124.68 140.32C124.55 140.367 124.435 140.42 124.335 140.48C124.235 140.537 124.143 140.588 124.06 140.635C123.98 140.682 123.89 140.705 123.79 140.705C123.703 140.705 123.63 140.683 123.57 140.64C123.51 140.593 123.462 140.54 123.425 140.48L123.205 140.085ZM129.683 139.37V144.5H128.443V139.37H129.683ZM129.853 137.875C129.853 137.982 129.831 138.082 129.788 138.175C129.745 138.268 129.686 138.35 129.613 138.42C129.543 138.49 129.46 138.547 129.363 138.59C129.266 138.63 129.163 138.65 129.053 138.65C128.946 138.65 128.845 138.63 128.748 138.59C128.655 138.547 128.573 138.49 128.503 138.42C128.433 138.35 128.376 138.268 128.333 138.175C128.293 138.082 128.273 137.982 128.273 137.875C128.273 137.765 128.293 137.662 128.333 137.565C128.376 137.468 128.433 137.385 128.503 137.315C128.573 137.245 128.655 137.19 128.748 137.15C128.845 137.107 128.946 137.085 129.053 137.085C129.163 137.085 129.266 137.107 129.363 137.15C129.46 137.19 129.543 137.245 129.613 137.315C129.686 137.385 129.745 137.468 129.788 137.565C129.831 137.662 129.853 137.765 129.853 137.875ZM132.097 140C132.2 139.897 132.309 139.802 132.422 139.715C132.539 139.625 132.66 139.55 132.787 139.49C132.917 139.427 133.055 139.378 133.202 139.345C133.349 139.308 133.509 139.29 133.682 139.29C133.962 139.29 134.21 139.338 134.427 139.435C134.644 139.528 134.824 139.662 134.967 139.835C135.114 140.005 135.224 140.21 135.297 140.45C135.374 140.687 135.412 140.948 135.412 141.235V144.5H134.177V141.235C134.177 140.922 134.105 140.68 133.962 140.51C133.819 140.337 133.6 140.25 133.307 140.25C133.094 140.25 132.894 140.298 132.707 140.395C132.52 140.492 132.344 140.623 132.177 140.79V144.5H130.942V139.37H131.697C131.857 139.37 131.962 139.445 132.012 139.595L132.097 140ZM139.807 140.68C139.667 140.51 139.513 140.39 139.347 140.32C139.183 140.25 139.007 140.215 138.817 140.215C138.63 140.215 138.462 140.25 138.312 140.32C138.162 140.39 138.033 140.497 137.927 140.64C137.82 140.78 137.738 140.96 137.682 141.18C137.625 141.397 137.597 141.653 137.597 141.95C137.597 142.25 137.62 142.505 137.667 142.715C137.717 142.922 137.787 143.092 137.877 143.225C137.967 143.355 138.077 143.45 138.207 143.51C138.337 143.567 138.482 143.595 138.642 143.595C138.898 143.595 139.117 143.542 139.297 143.435C139.477 143.328 139.647 143.177 139.807 142.98V140.68ZM141.042 137.07V144.5H140.287C140.123 144.5 140.02 144.425 139.977 144.275L139.872 143.78C139.665 144.017 139.427 144.208 139.157 144.355C138.89 144.502 138.578 144.575 138.222 144.575C137.942 144.575 137.685 144.517 137.452 144.4C137.218 144.283 137.017 144.115 136.847 143.895C136.68 143.672 136.55 143.397 136.457 143.07C136.367 142.743 136.322 142.37 136.322 141.95C136.322 141.57 136.373 141.217 136.477 140.89C136.58 140.563 136.728 140.28 136.922 140.04C137.115 139.8 137.347 139.613 137.617 139.48C137.887 139.343 138.19 139.275 138.527 139.275C138.813 139.275 139.058 139.32 139.262 139.41C139.465 139.5 139.647 139.622 139.807 139.775V137.07H141.042ZM144.97 142.31C144.614 142.327 144.314 142.358 144.07 142.405C143.827 142.448 143.632 142.505 143.485 142.575C143.339 142.645 143.234 142.727 143.17 142.82C143.107 142.913 143.075 143.015 143.075 143.125C143.075 143.342 143.139 143.497 143.265 143.59C143.395 143.683 143.564 143.73 143.77 143.73C144.024 143.73 144.242 143.685 144.425 143.595C144.612 143.502 144.794 143.362 144.97 143.175V142.31ZM142.14 140.085C142.73 139.545 143.44 139.275 144.27 139.275C144.57 139.275 144.839 139.325 145.075 139.425C145.312 139.522 145.512 139.658 145.675 139.835C145.839 140.008 145.962 140.217 146.045 140.46C146.132 140.703 146.175 140.97 146.175 141.26V144.5H145.615C145.499 144.5 145.409 144.483 145.345 144.45C145.282 144.413 145.232 144.342 145.195 144.235L145.085 143.865C144.955 143.982 144.829 144.085 144.705 144.175C144.582 144.262 144.454 144.335 144.32 144.395C144.187 144.455 144.044 144.5 143.89 144.53C143.74 144.563 143.574 144.58 143.39 144.58C143.174 144.58 142.974 144.552 142.79 144.495C142.607 144.435 142.449 144.347 142.315 144.23C142.182 144.113 142.079 143.968 142.005 143.795C141.932 143.622 141.895 143.42 141.895 143.19C141.895 143.06 141.917 142.932 141.96 142.805C142.004 142.675 142.074 142.552 142.17 142.435C142.27 142.318 142.399 142.208 142.555 142.105C142.712 142.002 142.904 141.912 143.13 141.835C143.36 141.758 143.627 141.697 143.93 141.65C144.234 141.6 144.58 141.57 144.97 141.56V141.26C144.97 140.917 144.897 140.663 144.75 140.5C144.604 140.333 144.392 140.25 144.115 140.25C143.915 140.25 143.749 140.273 143.615 140.32C143.485 140.367 143.37 140.42 143.27 140.48C143.17 140.537 143.079 140.588 142.995 140.635C142.915 140.682 142.825 140.705 142.725 140.705C142.639 140.705 142.565 140.683 142.505 140.64C142.445 140.593 142.397 140.54 142.36 140.48L142.14 140.085ZM150.925 140C151.028 139.897 151.137 139.802 151.25 139.715C151.367 139.625 151.488 139.55 151.615 139.49C151.745 139.427 151.883 139.378 152.03 139.345C152.177 139.308 152.337 139.29 152.51 139.29C152.79 139.29 153.038 139.338 153.255 139.435C153.472 139.528 153.652 139.662 153.795 139.835C153.942 140.005 154.052 140.21 154.125 140.45C154.202 140.687 154.24 140.948 154.24 141.235V144.5H153.005V141.235C153.005 140.922 152.933 140.68 152.79 140.51C152.647 140.337 152.428 140.25 152.135 140.25C151.922 140.25 151.722 140.298 151.535 140.395C151.348 140.492 151.172 140.623 151.005 140.79V144.5H149.77V139.37H150.525C150.685 139.37 150.79 139.445 150.84 139.595L150.925 140ZM158.125 142.31C157.768 142.327 157.468 142.358 157.225 142.405C156.981 142.448 156.786 142.505 156.64 142.575C156.493 142.645 156.388 142.727 156.325 142.82C156.261 142.913 156.23 143.015 156.23 143.125C156.23 143.342 156.293 143.497 156.42 143.59C156.55 143.683 156.718 143.73 156.925 143.73C157.178 143.73 157.396 143.685 157.58 143.595C157.766 143.502 157.948 143.362 158.125 143.175V142.31ZM155.295 140.085C155.885 139.545 156.595 139.275 157.425 139.275C157.725 139.275 157.993 139.325 158.23 139.425C158.466 139.522 158.666 139.658 158.83 139.835C158.993 140.008 159.116 140.217 159.2 140.46C159.286 140.703 159.33 140.97 159.33 141.26V144.5H158.77C158.653 144.5 158.563 144.483 158.5 144.45C158.436 144.413 158.386 144.342 158.35 144.235L158.24 143.865C158.11 143.982 157.983 144.085 157.86 144.175C157.736 144.262 157.608 144.335 157.475 144.395C157.341 144.455 157.198 144.5 157.045 144.53C156.895 144.563 156.728 144.58 156.545 144.58C156.328 144.58 156.128 144.552 155.945 144.495C155.761 144.435 155.603 144.347 155.47 144.23C155.336 144.113 155.233 143.968 155.16 143.795C155.086 143.622 155.05 143.42 155.05 143.19C155.05 143.06 155.071 142.932 155.115 142.805C155.158 142.675 155.228 142.552 155.325 142.435C155.425 142.318 155.553 142.208 155.71 142.105C155.866 142.002 156.058 141.912 156.285 141.835C156.515 141.758 156.781 141.697 157.085 141.65C157.388 141.6 157.735 141.57 158.125 141.56V141.26C158.125 140.917 158.051 140.663 157.905 140.5C157.758 140.333 157.546 140.25 157.27 140.25C157.07 140.25 156.903 140.273 156.77 140.32C156.64 140.367 156.525 140.42 156.425 140.48C156.325 140.537 156.233 140.588 156.15 140.635C156.07 140.682 155.98 140.705 155.88 140.705C155.793 140.705 155.72 140.683 155.66 140.64C155.6 140.593 155.551 140.54 155.515 140.48L155.295 140.085ZM157.845 137.705C157.945 137.705 158.023 137.678 158.08 137.625C158.136 137.568 158.165 137.468 158.165 137.325H158.915C158.915 137.512 158.888 137.682 158.835 137.835C158.785 137.985 158.715 138.115 158.625 138.225C158.535 138.332 158.426 138.415 158.3 138.475C158.176 138.532 158.04 138.56 157.89 138.56C157.77 138.56 157.658 138.538 157.555 138.495C157.451 138.452 157.355 138.405 157.265 138.355C157.175 138.305 157.09 138.258 157.01 138.215C156.933 138.172 156.861 138.15 156.795 138.15C156.698 138.15 156.621 138.18 156.565 138.24C156.511 138.297 156.485 138.395 156.485 138.535H155.72C155.72 138.348 155.745 138.18 155.795 138.03C155.848 137.877 155.921 137.747 156.015 137.64C156.108 137.53 156.216 137.445 156.34 137.385C156.466 137.325 156.603 137.295 156.75 137.295C156.87 137.295 156.981 137.317 157.085 137.36C157.191 137.403 157.29 137.45 157.38 137.5C157.47 137.55 157.553 137.597 157.63 137.64C157.706 137.683 157.778 137.705 157.845 137.705ZM162.763 139.29C163.143 139.29 163.488 139.352 163.798 139.475C164.111 139.598 164.378 139.773 164.598 140C164.821 140.227 164.993 140.503 165.113 140.83C165.233 141.157 165.293 141.522 165.293 141.925C165.293 142.332 165.233 142.698 165.113 143.025C164.993 143.352 164.821 143.63 164.598 143.86C164.378 144.09 164.111 144.267 163.798 144.39C163.488 144.513 163.143 144.575 162.763 144.575C162.379 144.575 162.031 144.513 161.718 144.39C161.404 144.267 161.136 144.09 160.913 143.86C160.693 143.63 160.521 143.352 160.398 143.025C160.278 142.698 160.218 142.332 160.218 141.925C160.218 141.522 160.278 141.157 160.398 140.83C160.521 140.503 160.693 140.227 160.913 140C161.136 139.773 161.404 139.598 161.718 139.475C162.031 139.352 162.379 139.29 162.763 139.29ZM162.763 143.625C163.189 143.625 163.504 143.482 163.708 143.195C163.914 142.908 164.018 142.488 164.018 141.935C164.018 141.382 163.914 140.96 163.708 140.67C163.504 140.38 163.189 140.235 162.763 140.235C162.329 140.235 162.008 140.382 161.798 140.675C161.591 140.965 161.488 141.385 161.488 141.935C161.488 142.485 161.591 142.905 161.798 143.195C162.008 143.482 162.329 143.625 162.763 143.625ZM169.027 144.5V140.3L168.582 140.23C168.485 140.21 168.407 140.177 168.347 140.13C168.29 140.08 168.262 140.01 168.262 139.92V139.415H169.027V139.035C169.027 138.742 169.07 138.478 169.157 138.245C169.247 138.012 169.373 137.813 169.537 137.65C169.703 137.487 169.905 137.362 170.142 137.275C170.378 137.188 170.645 137.145 170.942 137.145C171.178 137.145 171.398 137.177 171.602 137.24L171.577 137.86C171.573 137.907 171.56 137.945 171.537 137.975C171.513 138.002 171.482 138.023 171.442 138.04C171.405 138.053 171.362 138.063 171.312 138.07C171.262 138.073 171.208 138.075 171.152 138.075C171.005 138.075 170.873 138.092 170.757 138.125C170.643 138.155 170.547 138.21 170.467 138.29C170.387 138.367 170.325 138.47 170.282 138.6C170.242 138.727 170.222 138.885 170.222 139.075V139.415H171.557V140.295H170.262V144.5H169.027ZM174.384 139.29C174.764 139.29 175.109 139.352 175.419 139.475C175.732 139.598 175.999 139.773 176.219 140C176.442 140.227 176.614 140.503 176.734 140.83C176.854 141.157 176.914 141.522 176.914 141.925C176.914 142.332 176.854 142.698 176.734 143.025C176.614 143.352 176.442 143.63 176.219 143.86C175.999 144.09 175.732 144.267 175.419 144.39C175.109 144.513 174.764 144.575 174.384 144.575C174.001 144.575 173.652 144.513 173.339 144.39C173.026 144.267 172.757 144.09 172.534 143.86C172.314 143.63 172.142 143.352 172.019 143.025C171.899 142.698 171.839 142.332 171.839 141.925C171.839 141.522 171.899 141.157 172.019 140.83C172.142 140.503 172.314 140.227 172.534 140C172.757 139.773 173.026 139.598 173.339 139.475C173.652 139.352 174.001 139.29 174.384 139.29ZM174.384 143.625C174.811 143.625 175.126 143.482 175.329 143.195C175.536 142.908 175.639 142.488 175.639 141.935C175.639 141.382 175.536 140.96 175.329 140.67C175.126 140.38 174.811 140.235 174.384 140.235C173.951 140.235 173.629 140.382 173.419 140.675C173.212 140.965 173.109 141.385 173.109 141.935C173.109 142.485 173.212 142.905 173.419 143.195C173.629 143.482 173.951 143.625 174.384 143.625ZM179.136 139.37V144.5H177.896V139.37H179.136ZM179.306 137.875C179.306 137.982 179.284 138.082 179.241 138.175C179.198 138.268 179.139 138.35 179.066 138.42C178.996 138.49 178.913 138.547 178.816 138.59C178.719 138.63 178.616 138.65 178.506 138.65C178.399 138.65 178.298 138.63 178.201 138.59C178.108 138.547 178.026 138.49 177.956 138.42C177.886 138.35 177.829 138.268 177.786 138.175C177.746 138.082 177.726 137.982 177.726 137.875C177.726 137.765 177.746 137.662 177.786 137.565C177.829 137.468 177.886 137.385 177.956 137.315C178.026 137.245 178.108 137.19 178.201 137.15C178.298 137.107 178.399 137.085 178.506 137.085C178.616 137.085 178.719 137.107 178.816 137.15C178.913 137.19 178.996 137.245 179.066 137.315C179.139 137.385 179.198 137.468 179.241 137.565C179.284 137.662 179.306 137.765 179.306 137.875ZM61.9918 155.81C62.1452 155.81 62.2785 155.79 62.3918 155.75C62.5052 155.707 62.5985 155.648 62.6718 155.575C62.7485 155.502 62.8052 155.413 62.8418 155.31C62.8818 155.207 62.9018 155.093 62.9018 154.97C62.9018 154.717 62.8252 154.517 62.6718 154.37C62.5218 154.22 62.2952 154.145 61.9918 154.145C61.6885 154.145 61.4602 154.22 61.3068 154.37C61.1568 154.517 61.0818 154.717 61.0818 154.97C61.0818 155.09 61.1002 155.202 61.1368 155.305C61.1768 155.408 61.2335 155.498 61.3068 155.575C61.3835 155.648 61.4785 155.707 61.5918 155.75C61.7085 155.79 61.8418 155.81 61.9918 155.81ZM63.3868 158.73C63.3868 158.63 63.3568 158.548 63.2968 158.485C63.2368 158.422 63.1552 158.373 63.0518 158.34C62.9485 158.303 62.8268 158.277 62.6868 158.26C62.5502 158.243 62.4035 158.232 62.2468 158.225C62.0935 158.215 61.9335 158.207 61.7668 158.2C61.6035 158.193 61.4435 158.18 61.2868 158.16C61.1502 158.237 61.0385 158.327 60.9518 158.43C60.8685 158.533 60.8268 158.653 60.8268 158.79C60.8268 158.88 60.8485 158.963 60.8918 159.04C60.9385 159.12 61.0102 159.188 61.1068 159.245C61.2068 159.302 61.3352 159.345 61.4918 159.375C61.6485 159.408 61.8402 159.425 62.0668 159.425C62.2968 159.425 62.4952 159.407 62.6618 159.37C62.8285 159.337 62.9652 159.288 63.0718 159.225C63.1818 159.165 63.2618 159.092 63.3118 159.005C63.3618 158.922 63.3868 158.83 63.3868 158.73ZM64.6168 153.545V154.005C64.6168 154.152 64.5285 154.242 64.3518 154.275L63.8918 154.36C63.9618 154.537 63.9968 154.73 63.9968 154.94C63.9968 155.193 63.9452 155.423 63.8418 155.63C63.7418 155.833 63.6018 156.007 63.4218 156.15C63.2418 156.293 63.0285 156.405 62.7818 156.485C62.5385 156.562 62.2752 156.6 61.9918 156.6C61.8918 156.6 61.7952 156.595 61.7018 156.585C61.6085 156.575 61.5168 156.562 61.4268 156.545C61.2668 156.642 61.1868 156.75 61.1868 156.87C61.1868 156.973 61.2335 157.05 61.3268 157.1C61.4235 157.147 61.5502 157.18 61.7068 157.2C61.8635 157.22 62.0418 157.233 62.2418 157.24C62.4418 157.243 62.6468 157.253 62.8568 157.27C63.0668 157.287 63.2718 157.317 63.4718 157.36C63.6718 157.4 63.8502 157.465 64.0068 157.555C64.1635 157.645 64.2885 157.768 64.3818 157.925C64.4785 158.078 64.5268 158.277 64.5268 158.52C64.5268 158.747 64.4702 158.967 64.3568 159.18C64.2468 159.393 64.0852 159.583 63.8718 159.75C63.6618 159.917 63.4018 160.05 63.0918 160.15C62.7852 160.253 62.4352 160.305 62.0418 160.305C61.6552 160.305 61.3185 160.267 61.0318 160.19C60.7452 160.117 60.5068 160.017 60.3168 159.89C60.1268 159.767 59.9852 159.623 59.8918 159.46C59.7985 159.297 59.7518 159.127 59.7518 158.95C59.7518 158.71 59.8235 158.51 59.9668 158.35C60.1135 158.187 60.3135 158.057 60.5668 157.96C60.4302 157.89 60.3218 157.797 60.2418 157.68C60.1618 157.563 60.1218 157.41 60.1218 157.22C60.1218 157.143 60.1352 157.065 60.1618 156.985C60.1918 156.902 60.2335 156.82 60.2868 156.74C60.3435 156.66 60.4135 156.585 60.4968 156.515C60.5802 156.442 60.6785 156.377 60.7918 156.32C60.5318 156.18 60.3268 155.993 60.1768 155.76C60.0302 155.527 59.9568 155.253 59.9568 154.94C59.9568 154.687 60.0068 154.458 60.1068 154.255C60.2102 154.048 60.3518 153.873 60.5318 153.73C60.7152 153.583 60.9302 153.472 61.1768 153.395C61.4268 153.318 61.6985 153.28 61.9918 153.28C62.2118 153.28 62.4185 153.303 62.6118 153.35C62.8052 153.393 62.9818 153.458 63.1418 153.545H64.6168ZM68.6171 155.345C68.6171 155.185 68.5938 155.035 68.5471 154.895C68.5038 154.752 68.4371 154.627 68.3471 154.52C68.2571 154.413 68.1421 154.33 68.0021 154.27C67.8655 154.207 67.7055 154.175 67.5221 154.175C67.1655 154.175 66.8838 154.277 66.6771 154.48C66.4738 154.683 66.3438 154.972 66.2871 155.345H68.6171ZM66.2621 156.09C66.2821 156.353 66.3288 156.582 66.4021 156.775C66.4755 156.965 66.5721 157.123 66.6921 157.25C66.8121 157.373 66.9538 157.467 67.1171 157.53C67.2838 157.59 67.4671 157.62 67.6671 157.62C67.8671 157.62 68.0388 157.597 68.1821 157.55C68.3288 157.503 68.4555 157.452 68.5621 157.395C68.6721 157.338 68.7671 157.287 68.8471 157.24C68.9305 157.193 69.0105 157.17 69.0871 157.17C69.1905 157.17 69.2671 157.208 69.3171 157.285L69.6721 157.735C69.5355 157.895 69.3821 158.03 69.2121 158.14C69.0421 158.247 68.8638 158.333 68.6771 158.4C68.4938 158.463 68.3055 158.508 68.1121 158.535C67.9221 158.562 67.7371 158.575 67.5571 158.575C67.2005 158.575 66.8688 158.517 66.5621 158.4C66.2555 158.28 65.9888 158.105 65.7621 157.875C65.5355 157.642 65.3571 157.355 65.2271 157.015C65.0971 156.672 65.0321 156.275 65.0321 155.825C65.0321 155.475 65.0888 155.147 65.2021 154.84C65.3155 154.53 65.4771 154.262 65.6871 154.035C65.9005 153.805 66.1588 153.623 66.4621 153.49C66.7688 153.357 67.1138 153.29 67.4971 153.29C67.8205 153.29 68.1188 153.342 68.3921 153.445C68.6655 153.548 68.9005 153.7 69.0971 153.9C69.2938 154.097 69.4471 154.34 69.5571 154.63C69.6705 154.917 69.7271 155.245 69.7271 155.615C69.7271 155.802 69.7071 155.928 69.6671 155.995C69.6271 156.058 69.5505 156.09 69.4371 156.09H66.2621ZM71.8189 154.26C71.9789 153.953 72.1689 153.713 72.3889 153.54C72.6089 153.363 72.8689 153.275 73.1689 153.275C73.4056 153.275 73.5956 153.327 73.7389 153.43L73.6589 154.355C73.6423 154.415 73.6173 154.458 73.5839 154.485C73.5539 154.508 73.5123 154.52 73.4589 154.52C73.4089 154.52 73.3339 154.512 73.2339 154.495C73.1373 154.478 73.0423 154.47 72.9489 154.47C72.8123 154.47 72.6906 154.49 72.5839 154.53C72.4773 154.57 72.3806 154.628 72.2939 154.705C72.2106 154.778 72.1356 154.868 72.0689 154.975C72.0056 155.082 71.9456 155.203 71.8889 155.34V158.5H70.6539V153.37H71.3789C71.5056 153.37 71.5939 153.393 71.6439 153.44C71.6939 153.483 71.7273 153.563 71.7439 153.68L71.8189 154.26ZM77.0261 156.31C76.6694 156.327 76.3694 156.358 76.1261 156.405C75.8827 156.448 75.6877 156.505 75.5411 156.575C75.3944 156.645 75.2894 156.727 75.2261 156.82C75.1627 156.913 75.1311 157.015 75.1311 157.125C75.1311 157.342 75.1944 157.497 75.3211 157.59C75.4511 157.683 75.6194 157.73 75.8261 157.73C76.0794 157.73 76.2977 157.685 76.4811 157.595C76.6677 157.502 76.8494 157.362 77.0261 157.175V156.31ZM74.1961 154.085C74.7861 153.545 75.4961 153.275 76.3261 153.275C76.6261 153.275 76.8944 153.325 77.1311 153.425C77.3677 153.522 77.5677 153.658 77.7311 153.835C77.8944 154.008 78.0177 154.217 78.1011 154.46C78.1877 154.703 78.2311 154.97 78.2311 155.26V158.5H77.6711C77.5544 158.5 77.4644 158.483 77.4011 158.45C77.3377 158.413 77.2877 158.342 77.2511 158.235L77.1411 157.865C77.0111 157.982 76.8844 158.085 76.7611 158.175C76.6377 158.262 76.5094 158.335 76.3761 158.395C76.2427 158.455 76.0994 158.5 75.9461 158.53C75.7961 158.563 75.6294 158.58 75.4461 158.58C75.2294 158.58 75.0294 158.552 74.8461 158.495C74.6627 158.435 74.5044 158.347 74.3711 158.23C74.2377 158.113 74.1344 157.968 74.0611 157.795C73.9877 157.622 73.9511 157.42 73.9511 157.19C73.9511 157.06 73.9727 156.932 74.0161 156.805C74.0594 156.675 74.1294 156.552 74.2261 156.435C74.3261 156.318 74.4544 156.208 74.6111 156.105C74.7677 156.002 74.9594 155.912 75.1861 155.835C75.4161 155.758 75.6827 155.697 75.9861 155.65C76.2894 155.6 76.6361 155.57 77.0261 155.56V155.26C77.0261 154.917 76.9527 154.663 76.8061 154.5C76.6594 154.333 76.4477 154.25 76.1711 154.25C75.9711 154.25 75.8044 154.273 75.6711 154.32C75.5411 154.367 75.4261 154.42 75.3261 154.48C75.2261 154.537 75.1344 154.588 75.0511 154.635C74.9711 154.682 74.8811 154.705 74.7811 154.705C74.6944 154.705 74.6211 154.683 74.5611 154.64C74.5011 154.593 74.4527 154.54 74.4161 154.48L74.1961 154.085ZM82.6142 154.68C82.4742 154.51 82.3208 154.39 82.1542 154.32C81.9908 154.25 81.8142 154.215 81.6242 154.215C81.4375 154.215 81.2692 154.25 81.1192 154.32C80.9692 154.39 80.8408 154.497 80.7342 154.64C80.6275 154.78 80.5458 154.96 80.4892 155.18C80.4325 155.397 80.4042 155.653 80.4042 155.95C80.4042 156.25 80.4275 156.505 80.4742 156.715C80.5242 156.922 80.5942 157.092 80.6842 157.225C80.7742 157.355 80.8842 157.45 81.0142 157.51C81.1442 157.567 81.2892 157.595 81.4492 157.595C81.7058 157.595 81.9242 157.542 82.1042 157.435C82.2842 157.328 82.4542 157.177 82.6142 156.98V154.68ZM83.8492 151.07V158.5H83.0942C82.9308 158.5 82.8275 158.425 82.7842 158.275L82.6792 157.78C82.4725 158.017 82.2342 158.208 81.9642 158.355C81.6975 158.502 81.3858 158.575 81.0292 158.575C80.7492 158.575 80.4925 158.517 80.2592 158.4C80.0258 158.283 79.8242 158.115 79.6542 157.895C79.4875 157.672 79.3575 157.397 79.2642 157.07C79.1742 156.743 79.1292 156.37 79.1292 155.95C79.1292 155.57 79.1808 155.217 79.2842 154.89C79.3875 154.563 79.5358 154.28 79.7292 154.04C79.9225 153.8 80.1542 153.613 80.4242 153.48C80.6942 153.343 80.9975 153.275 81.3342 153.275C81.6208 153.275 81.8658 153.32 82.0692 153.41C82.2725 153.5 82.4542 153.622 82.6142 153.775V151.07H83.8492ZM87.338 153.29C87.718 153.29 88.063 153.352 88.373 153.475C88.6863 153.598 88.953 153.773 89.173 154C89.3963 154.227 89.568 154.503 89.688 154.83C89.808 155.157 89.868 155.522 89.868 155.925C89.868 156.332 89.808 156.698 89.688 157.025C89.568 157.352 89.3963 157.63 89.173 157.86C88.953 158.09 88.6863 158.267 88.373 158.39C88.063 158.513 87.718 158.575 87.338 158.575C86.9547 158.575 86.6063 158.513 86.293 158.39C85.9797 158.267 85.7113 158.09 85.488 157.86C85.268 157.63 85.0963 157.352 84.973 157.025C84.853 156.698 84.793 156.332 84.793 155.925C84.793 155.522 84.853 155.157 84.973 154.83C85.0963 154.503 85.268 154.227 85.488 154C85.7113 153.773 85.9797 153.598 86.293 153.475C86.6063 153.352 86.9547 153.29 87.338 153.29ZM87.338 157.625C87.7647 157.625 88.0797 157.482 88.283 157.195C88.4897 156.908 88.593 156.488 88.593 155.935C88.593 155.382 88.4897 154.96 88.283 154.67C88.0797 154.38 87.7647 154.235 87.338 154.235C86.9047 154.235 86.583 154.382 86.373 154.675C86.1663 154.965 86.063 155.385 86.063 155.935C86.063 156.485 86.1663 156.905 86.373 157.195C86.583 157.482 86.9047 157.625 87.338 157.625ZM94.4768 157.17C94.6168 157.34 94.7685 157.46 94.9318 157.53C95.0985 157.6 95.2785 157.635 95.4718 157.635C95.6585 157.635 95.8268 157.6 95.9768 157.53C96.1268 157.46 96.2535 157.353 96.3568 157.21C96.4635 157.067 96.5452 156.887 96.6018 156.67C96.6585 156.45 96.6868 156.192 96.6868 155.895C96.6868 155.595 96.6618 155.342 96.6118 155.135C96.5652 154.925 96.4968 154.755 96.4068 154.625C96.3168 154.495 96.2068 154.4 96.0768 154.34C95.9502 154.28 95.8052 154.25 95.6418 154.25C95.3852 154.25 95.1668 154.305 94.9868 154.415C94.8068 154.522 94.6368 154.673 94.4768 154.87V157.17ZM94.4118 154.07C94.6218 153.833 94.8602 153.642 95.1268 153.495C95.3935 153.348 95.7068 153.275 96.0668 153.275C96.3468 153.275 96.6018 153.333 96.8318 153.45C97.0652 153.567 97.2652 153.737 97.4318 153.96C97.6018 154.18 97.7318 154.453 97.8218 154.78C97.9152 155.103 97.9618 155.475 97.9618 155.895C97.9618 156.278 97.9102 156.633 97.8068 156.96C97.7035 157.287 97.5552 157.57 97.3618 157.81C97.1718 158.05 96.9402 158.238 96.6668 158.375C96.3968 158.508 96.0935 158.575 95.7568 158.575C95.4702 158.575 95.2252 158.532 95.0218 158.445C94.8185 158.355 94.6368 158.232 94.4768 158.075V160.175H93.2418V153.37H93.9968C94.1568 153.37 94.2618 153.445 94.3118 153.595L94.4118 154.07ZM102.23 155.345C102.23 155.185 102.207 155.035 102.16 154.895C102.117 154.752 102.05 154.627 101.96 154.52C101.87 154.413 101.755 154.33 101.615 154.27C101.479 154.207 101.319 154.175 101.135 154.175C100.779 154.175 100.497 154.277 100.29 154.48C100.087 154.683 99.9571 154.972 99.9004 155.345H102.23ZM99.8754 156.09C99.8954 156.353 99.9421 156.582 100.015 156.775C100.089 156.965 100.185 157.123 100.305 157.25C100.425 157.373 100.567 157.467 100.73 157.53C100.897 157.59 101.08 157.62 101.28 157.62C101.48 157.62 101.652 157.597 101.795 157.55C101.942 157.503 102.069 157.452 102.175 157.395C102.285 157.338 102.38 157.287 102.46 157.24C102.544 157.193 102.624 157.17 102.7 157.17C102.804 157.17 102.88 157.208 102.93 157.285L103.285 157.735C103.149 157.895 102.995 158.03 102.825 158.14C102.655 158.247 102.477 158.333 102.29 158.4C102.107 158.463 101.919 158.508 101.725 158.535C101.535 158.562 101.35 158.575 101.17 158.575C100.814 158.575 100.482 158.517 100.175 158.4C99.8688 158.28 99.6021 158.105 99.3754 157.875C99.1488 157.642 98.9704 157.355 98.8404 157.015C98.7104 156.672 98.6454 156.275 98.6454 155.825C98.6454 155.475 98.7021 155.147 98.8154 154.84C98.9288 154.53 99.0904 154.262 99.3004 154.035C99.5138 153.805 99.7721 153.623 100.075 153.49C100.382 153.357 100.727 153.29 101.11 153.29C101.434 153.29 101.732 153.342 102.005 153.445C102.279 153.548 102.514 153.7 102.71 153.9C102.907 154.097 103.06 154.34 103.17 154.63C103.284 154.917 103.34 155.245 103.34 155.615C103.34 155.802 103.32 155.928 103.28 155.995C103.24 156.058 103.164 156.09 103.05 156.09H99.8754ZM105.517 151.07V158.5H104.282V151.07H105.517ZM109.018 153.29C109.398 153.29 109.743 153.352 110.053 153.475C110.366 153.598 110.633 153.773 110.853 154C111.076 154.227 111.248 154.503 111.368 154.83C111.488 155.157 111.548 155.522 111.548 155.925C111.548 156.332 111.488 156.698 111.368 157.025C111.248 157.352 111.076 157.63 110.853 157.86C110.633 158.09 110.366 158.267 110.053 158.39C109.743 158.513 109.398 158.575 109.018 158.575C108.634 158.575 108.286 158.513 107.973 158.39C107.659 158.267 107.391 158.09 107.168 157.86C106.948 157.63 106.776 157.352 106.653 157.025C106.533 156.698 106.473 156.332 106.473 155.925C106.473 155.522 106.533 155.157 106.653 154.83C106.776 154.503 106.948 154.227 107.168 154C107.391 153.773 107.659 153.598 107.973 153.475C108.286 153.352 108.634 153.29 109.018 153.29ZM109.018 157.625C109.444 157.625 109.759 157.482 109.963 157.195C110.169 156.908 110.273 156.488 110.273 155.935C110.273 155.382 110.169 154.96 109.963 154.67C109.759 154.38 109.444 154.235 109.018 154.235C108.584 154.235 108.263 154.382 108.053 154.675C107.846 154.965 107.743 155.385 107.743 155.935C107.743 156.485 107.846 156.905 108.053 157.195C108.263 157.482 108.584 157.625 109.018 157.625ZM118.052 154.37C118.018 154.423 117.983 154.462 117.947 154.485C117.91 154.505 117.863 154.515 117.807 154.515C117.747 154.515 117.682 154.498 117.612 154.465C117.545 154.432 117.467 154.395 117.377 154.355C117.287 154.312 117.183 154.273 117.067 154.24C116.953 154.207 116.818 154.19 116.662 154.19C116.418 154.19 116.227 154.242 116.087 154.345C115.95 154.448 115.882 154.583 115.882 154.75C115.882 154.86 115.917 154.953 115.987 155.03C116.06 155.103 116.155 155.168 116.272 155.225C116.392 155.282 116.527 155.333 116.677 155.38C116.827 155.423 116.978 155.472 117.132 155.525C117.288 155.578 117.442 155.64 117.592 155.71C117.742 155.777 117.875 155.863 117.992 155.97C118.112 156.073 118.207 156.198 118.277 156.345C118.35 156.492 118.387 156.668 118.387 156.875C118.387 157.122 118.342 157.35 118.252 157.56C118.165 157.767 118.035 157.947 117.862 158.1C117.688 158.25 117.473 158.368 117.217 158.455C116.963 158.538 116.67 158.58 116.337 158.58C116.16 158.58 115.987 158.563 115.817 158.53C115.65 158.5 115.488 158.457 115.332 158.4C115.178 158.343 115.035 158.277 114.902 158.2C114.772 158.123 114.657 158.04 114.557 157.95L114.842 157.48C114.878 157.423 114.922 157.38 114.972 157.35C115.022 157.32 115.085 157.305 115.162 157.305C115.238 157.305 115.31 157.327 115.377 157.37C115.447 157.413 115.527 157.46 115.617 157.51C115.707 157.56 115.812 157.607 115.932 157.65C116.055 157.693 116.21 157.715 116.397 157.715C116.543 157.715 116.668 157.698 116.772 157.665C116.878 157.628 116.965 157.582 117.032 157.525C117.102 157.468 117.152 157.403 117.182 157.33C117.215 157.253 117.232 157.175 117.232 157.095C117.232 156.975 117.195 156.877 117.122 156.8C117.052 156.723 116.957 156.657 116.837 156.6C116.72 156.543 116.585 156.493 116.432 156.45C116.282 156.403 116.127 156.353 115.967 156.3C115.81 156.247 115.655 156.185 115.502 156.115C115.352 156.042 115.217 155.95 115.097 155.84C114.98 155.73 114.885 155.595 114.812 155.435C114.742 155.275 114.707 155.082 114.707 154.855C114.707 154.645 114.748 154.445 114.832 154.255C114.915 154.065 115.037 153.9 115.197 153.76C115.36 153.617 115.562 153.503 115.802 153.42C116.045 153.333 116.325 153.29 116.642 153.29C116.995 153.29 117.317 153.348 117.607 153.465C117.897 153.582 118.138 153.735 118.332 153.925L118.052 154.37ZM120.596 153.37V158.5H119.356V153.37H120.596ZM120.766 151.875C120.766 151.982 120.744 152.082 120.701 152.175C120.658 152.268 120.599 152.35 120.526 152.42C120.456 152.49 120.373 152.547 120.276 152.59C120.179 152.63 120.076 152.65 119.966 152.65C119.859 152.65 119.758 152.63 119.661 152.59C119.568 152.547 119.486 152.49 119.416 152.42C119.346 152.35 119.289 152.268 119.246 152.175C119.206 152.082 119.186 151.982 119.186 151.875C119.186 151.765 119.206 151.662 119.246 151.565C119.289 151.468 119.346 151.385 119.416 151.315C119.486 151.245 119.568 151.19 119.661 151.15C119.758 151.107 119.859 151.085 119.966 151.085C120.076 151.085 120.179 151.107 120.276 151.15C120.373 151.19 120.456 151.245 120.526 151.315C120.599 151.385 120.658 151.468 120.701 151.565C120.744 151.662 120.766 151.765 120.766 151.875ZM124.985 154.37C124.952 154.423 124.917 154.462 124.88 154.485C124.843 154.505 124.797 154.515 124.74 154.515C124.68 154.515 124.615 154.498 124.545 154.465C124.478 154.432 124.4 154.395 124.31 154.355C124.22 154.312 124.117 154.273 124 154.24C123.887 154.207 123.752 154.19 123.595 154.19C123.352 154.19 123.16 154.242 123.02 154.345C122.883 154.448 122.815 154.583 122.815 154.75C122.815 154.86 122.85 154.953 122.92 155.03C122.993 155.103 123.088 155.168 123.205 155.225C123.325 155.282 123.46 155.333 123.61 155.38C123.76 155.423 123.912 155.472 124.065 155.525C124.222 155.578 124.375 155.64 124.525 155.71C124.675 155.777 124.808 155.863 124.925 155.97C125.045 156.073 125.14 156.198 125.21 156.345C125.283 156.492 125.32 156.668 125.32 156.875C125.32 157.122 125.275 157.35 125.185 157.56C125.098 157.767 124.968 157.947 124.795 158.1C124.622 158.25 124.407 158.368 124.15 158.455C123.897 158.538 123.603 158.58 123.27 158.58C123.093 158.58 122.92 158.563 122.75 158.53C122.583 158.5 122.422 158.457 122.265 158.4C122.112 158.343 121.968 158.277 121.835 158.2C121.705 158.123 121.59 158.04 121.49 157.95L121.775 157.48C121.812 157.423 121.855 157.38 121.905 157.35C121.955 157.32 122.018 157.305 122.095 157.305C122.172 157.305 122.243 157.327 122.31 157.37C122.38 157.413 122.46 157.46 122.55 157.51C122.64 157.56 122.745 157.607 122.865 157.65C122.988 157.693 123.143 157.715 123.33 157.715C123.477 157.715 123.602 157.698 123.705 157.665C123.812 157.628 123.898 157.582 123.965 157.525C124.035 157.468 124.085 157.403 124.115 157.33C124.148 157.253 124.165 157.175 124.165 157.095C124.165 156.975 124.128 156.877 124.055 156.8C123.985 156.723 123.89 156.657 123.77 156.6C123.653 156.543 123.518 156.493 123.365 156.45C123.215 156.403 123.06 156.353 122.9 156.3C122.743 156.247 122.588 156.185 122.435 156.115C122.285 156.042 122.15 155.95 122.03 155.84C121.913 155.73 121.818 155.595 121.745 155.435C121.675 155.275 121.64 155.082 121.64 154.855C121.64 154.645 121.682 154.445 121.765 154.255C121.848 154.065 121.97 153.9 122.13 153.76C122.293 153.617 122.495 153.503 122.735 153.42C122.978 153.333 123.258 153.29 123.575 153.29C123.928 153.29 124.25 153.348 124.54 153.465C124.83 153.582 125.072 153.735 125.265 153.925L124.985 154.37ZM127.96 158.58C127.513 158.58 127.17 158.455 126.93 158.205C126.693 157.952 126.575 157.603 126.575 157.16V154.295H126.05C125.983 154.295 125.926 154.273 125.88 154.23C125.833 154.187 125.81 154.122 125.81 154.035V153.545L126.635 153.41L126.895 152.01C126.911 151.943 126.943 151.892 126.99 151.855C127.036 151.818 127.096 151.8 127.17 151.8H127.81V153.415H129.18V154.295H127.81V157.075C127.81 157.235 127.848 157.36 127.925 157.45C128.005 157.54 128.113 157.585 128.25 157.585C128.326 157.585 128.39 157.577 128.44 157.56C128.493 157.54 128.538 157.52 128.575 157.5C128.615 157.48 128.65 157.462 128.68 157.445C128.71 157.425 128.74 157.415 128.77 157.415C128.806 157.415 128.836 157.425 128.86 157.445C128.883 157.462 128.908 157.488 128.935 157.525L129.305 158.125C129.125 158.275 128.918 158.388 128.685 158.465C128.451 158.542 128.21 158.58 127.96 158.58ZM133.236 155.345C133.236 155.185 133.213 155.035 133.166 154.895C133.123 154.752 133.056 154.627 132.966 154.52C132.876 154.413 132.761 154.33 132.621 154.27C132.485 154.207 132.325 154.175 132.141 154.175C131.785 154.175 131.503 154.277 131.296 154.48C131.093 154.683 130.963 154.972 130.906 155.345H133.236ZM130.881 156.09C130.901 156.353 130.948 156.582 131.021 156.775C131.095 156.965 131.191 157.123 131.311 157.25C131.431 157.373 131.573 157.467 131.736 157.53C131.903 157.59 132.086 157.62 132.286 157.62C132.486 157.62 132.658 157.597 132.801 157.55C132.948 157.503 133.075 157.452 133.181 157.395C133.291 157.338 133.386 157.287 133.466 157.24C133.55 157.193 133.63 157.17 133.706 157.17C133.81 157.17 133.886 157.208 133.936 157.285L134.291 157.735C134.155 157.895 134.001 158.03 133.831 158.14C133.661 158.247 133.483 158.333 133.296 158.4C133.113 158.463 132.925 158.508 132.731 158.535C132.541 158.562 132.356 158.575 132.176 158.575C131.82 158.575 131.488 158.517 131.181 158.4C130.875 158.28 130.608 158.105 130.381 157.875C130.155 157.642 129.976 157.355 129.846 157.015C129.716 156.672 129.651 156.275 129.651 155.825C129.651 155.475 129.708 155.147 129.821 154.84C129.935 154.53 130.096 154.262 130.306 154.035C130.52 153.805 130.778 153.623 131.081 153.49C131.388 153.357 131.733 153.29 132.116 153.29C132.44 153.29 132.738 153.342 133.011 153.445C133.285 153.548 133.52 153.7 133.716 153.9C133.913 154.097 134.066 154.34 134.176 154.63C134.29 154.917 134.346 155.245 134.346 155.615C134.346 155.802 134.326 155.928 134.286 155.995C134.246 156.058 134.17 156.09 134.056 156.09H130.881ZM135.273 158.5V153.37H136.028C136.188 153.37 136.293 153.445 136.343 153.595L136.423 153.975C136.513 153.875 136.606 153.783 136.703 153.7C136.803 153.617 136.908 153.545 137.018 153.485C137.131 153.425 137.251 153.378 137.378 153.345C137.508 153.308 137.65 153.29 137.803 153.29C138.126 153.29 138.391 153.378 138.598 153.555C138.808 153.728 138.965 153.96 139.068 154.25C139.148 154.08 139.248 153.935 139.368 153.815C139.488 153.692 139.62 153.592 139.763 153.515C139.906 153.438 140.058 153.382 140.218 153.345C140.381 153.308 140.545 153.29 140.708 153.29C140.991 153.29 141.243 153.333 141.463 153.42C141.683 153.507 141.868 153.633 142.018 153.8C142.168 153.967 142.281 154.17 142.358 154.41C142.438 154.65 142.478 154.925 142.478 155.235V158.5H141.243V155.235C141.243 154.908 141.171 154.663 141.028 154.5C140.885 154.333 140.675 154.25 140.398 154.25C140.271 154.25 140.153 154.272 140.043 154.315C139.936 154.358 139.841 154.422 139.758 154.505C139.678 154.585 139.615 154.687 139.568 154.81C139.521 154.933 139.498 155.075 139.498 155.235V158.5H138.258V155.235C138.258 154.892 138.188 154.642 138.048 154.485C137.911 154.328 137.71 154.25 137.443 154.25C137.263 154.25 137.095 154.295 136.938 154.385C136.785 154.472 136.641 154.592 136.508 154.745V158.5H135.273ZM146.362 156.31C146.005 156.327 145.705 156.358 145.462 156.405C145.219 156.448 145.024 156.505 144.877 156.575C144.73 156.645 144.625 156.727 144.562 156.82C144.499 156.913 144.467 157.015 144.467 157.125C144.467 157.342 144.53 157.497 144.657 157.59C144.787 157.683 144.955 157.73 145.162 157.73C145.415 157.73 145.634 157.685 145.817 157.595C146.004 157.502 146.185 157.362 146.362 157.175V156.31ZM143.532 154.085C144.122 153.545 144.832 153.275 145.662 153.275C145.962 153.275 146.23 153.325 146.467 153.425C146.704 153.522 146.904 153.658 147.067 153.835C147.23 154.008 147.354 154.217 147.437 154.46C147.524 154.703 147.567 154.97 147.567 155.26V158.5H147.007C146.89 158.5 146.8 158.483 146.737 158.45C146.674 158.413 146.624 158.342 146.587 158.235L146.477 157.865C146.347 157.982 146.22 158.085 146.097 158.175C145.974 158.262 145.845 158.335 145.712 158.395C145.579 158.455 145.435 158.5 145.282 158.53C145.132 158.563 144.965 158.58 144.782 158.58C144.565 158.58 144.365 158.552 144.182 158.495C143.999 158.435 143.84 158.347 143.707 158.23C143.574 158.113 143.47 157.968 143.397 157.795C143.324 157.622 143.287 157.42 143.287 157.19C143.287 157.06 143.309 156.932 143.352 156.805C143.395 156.675 143.465 156.552 143.562 156.435C143.662 156.318 143.79 156.208 143.947 156.105C144.104 156.002 144.295 155.912 144.522 155.835C144.752 155.758 145.019 155.697 145.322 155.65C145.625 155.6 145.972 155.57 146.362 155.56V155.26C146.362 154.917 146.289 154.663 146.142 154.5C145.995 154.333 145.784 154.25 145.507 154.25C145.307 154.25 145.14 154.273 145.007 154.32C144.877 154.367 144.762 154.42 144.662 154.48C144.562 154.537 144.47 154.588 144.387 154.635C144.307 154.682 144.217 154.705 144.117 154.705C144.03 154.705 143.957 154.683 143.897 154.64C143.837 154.593 143.789 154.54 143.752 154.48L143.532 154.085ZM148.55 157.82C148.55 157.717 148.568 157.618 148.605 157.525C148.645 157.432 148.698 157.352 148.765 157.285C148.832 157.218 148.912 157.165 149.005 157.125C149.098 157.085 149.198 157.065 149.305 157.065C149.412 157.065 149.51 157.085 149.6 157.125C149.693 157.165 149.773 157.218 149.84 157.285C149.91 157.352 149.965 157.432 150.005 157.525C150.045 157.618 150.065 157.717 150.065 157.82C150.065 157.927 150.045 158.027 150.005 158.12C149.965 158.21 149.91 158.288 149.84 158.355C149.773 158.422 149.693 158.473 149.6 158.51C149.51 158.55 149.412 158.57 149.305 158.57C149.198 158.57 149.098 158.55 149.005 158.51C148.912 158.473 148.832 158.422 148.765 158.355C148.698 158.288 148.645 158.21 148.605 158.12C148.568 158.027 148.55 157.927 148.55 157.82Z"
        fill="#535964"
    />
</svg>
