<svg width="56" height="56" viewBox="0 0 56 56" fill="none" xmlns="http://www.w3.org/2000/svg">
<circle cx="28" cy="28" r="27" fill="#D03E3E" fill-opacity="0.2" stroke="white" stroke-width="2"/>
<circle cx="47" cy="46.5" r="6" fill="#D03E3E" stroke="white" stroke-width="2"/>
<path fill-rule="evenodd" clip-rule="evenodd" d="M23 24.5C21.9391 24.5 20.9217 24.9214 20.1716 25.6716C19.4214 26.4217 19 27.4391 19 28.5C19 29.5609 19.4214 30.5783 20.1716 31.3284C20.9217 32.0786 21.9391 32.5 23 32.5H25C25.5523 32.5 26 32.9477 26 33.5C26 34.0523 25.5523 34.5 25 34.5H23C21.4087 34.5 19.8826 33.8679 18.7574 32.7426C17.6321 31.6174 17 30.0913 17 28.5C17 26.9087 17.6321 25.3826 18.7574 24.2574C19.8826 23.1321 21.4087 22.5 23 22.5C23.5523 22.5 24 22.9477 24 23.5C24 24.0523 23.5523 24.5 23 24.5Z" fill="#D03E3E"/>
<path fill-rule="evenodd" clip-rule="evenodd" d="M30 23.5C30 22.9477 30.4477 22.5 31 22.5H33C34.1143 22.5 35.2065 22.8103 36.1544 23.3961C37.1022 23.9819 37.8682 24.8201 38.3666 25.8167C38.8649 26.8134 39.0758 27.9291 38.9758 29.0388C38.8757 30.1486 38.4686 31.2086 37.8 32.1C37.4686 32.5418 36.8418 32.6314 36.4 32.3C35.9582 31.9686 35.8686 31.3418 36.2 30.9C36.6457 30.3057 36.9171 29.5991 36.9838 28.8592C37.0505 28.1194 36.9099 27.3756 36.5777 26.7111C36.2455 26.0467 35.7348 25.4879 35.1029 25.0974C34.471 24.7069 33.7428 24.5 33 24.5H31C30.4477 24.5 30 24.0523 30 23.5Z" fill="#D03E3E"/>
<path fill-rule="evenodd" clip-rule="evenodd" d="M23 28.5C23 27.9477 23.4477 27.5 24 27.5H28C28.5523 27.5 29 27.9477 29 28.5C29 29.0523 28.5523 29.5 28 29.5H24C23.4477 29.5 23 29.0523 23 28.5Z" fill="#D03E3E"/>
<path fill-rule="evenodd" clip-rule="evenodd" d="M17.2929 17.7929C17.6834 17.4024 18.3166 17.4024 18.7071 17.7929L38.7071 37.7929C39.0976 38.1834 39.0976 38.8166 38.7071 39.2071C38.3166 39.5976 37.6834 39.5976 37.2929 39.2071L17.2929 19.2071C16.9024 18.8166 16.9024 18.1834 17.2929 17.7929Z" fill="#D03E3E"/>
</svg>
