<svg width="56" height="56" viewBox="0 0 56 56" fill="none" xmlns="http://www.w3.org/2000/svg">
<circle cx="28" cy="28" r="27" fill="#FF8D28" fill-opacity="0.2" stroke="white" stroke-width="2"/>
<circle cx="47" cy="46.5" r="6" fill="#FF8D28" stroke="white" stroke-width="2"/>
<path fill-rule="evenodd" clip-rule="evenodd" d="M20 20.5V23.5H23V20.5H20ZM19.9988 23.5C19.9987 23.4999 19.9987 23.4999 19.9988 23.5L19.9988 23.5ZM18 20.5C18 19.3954 18.8954 18.5 20 18.5H23C24.1046 18.5 25 19.3954 25 20.5V23.5C25 24.6046 24.1046 25.5 23 25.5H20C18.8954 25.5 18 24.6046 18 23.5V20.5Z" fill="#FF8D28"/>
<path fill-rule="evenodd" clip-rule="evenodd" d="M33 20.5V23.5H36V20.5H33ZM32.9988 23.5C32.9987 23.4999 32.9987 23.4999 32.9988 23.5L32.9988 23.5ZM31 20.5C31 19.3954 31.8954 18.5 33 18.5H36C37.1046 18.5 38 19.3954 38 20.5V23.5C38 24.6046 37.1046 25.5 36 25.5H33C31.8954 25.5 31 24.6046 31 23.5V20.5Z" fill="#FF8D28"/>
<path fill-rule="evenodd" clip-rule="evenodd" d="M20 33.5V36.5H23V33.5H20ZM19.9988 36.5C19.9987 36.4999 19.9987 36.4999 19.9988 36.5L19.9988 36.5ZM18 33.5C18 32.3954 18.8954 31.5 20 31.5H23C24.1046 31.5 25 32.3954 25 33.5V36.5C25 37.6046 24.1046 38.5 23 38.5H20C18.8954 38.5 18 37.6046 18 36.5V33.5Z" fill="#FF8D28"/>
<path fill-rule="evenodd" clip-rule="evenodd" d="M31.8787 32.3787C32.4413 31.8161 33.2043 31.5 34 31.5H37C37.5523 31.5 38 31.9477 38 32.5C38 33.0523 37.5523 33.5 37 33.5H34C33.7348 33.5 33.4804 33.6054 33.2929 33.7929C33.1054 33.9804 33 34.2348 33 34.5V37.5C33 38.0523 32.5523 38.5 32 38.5C31.4477 38.5 31 38.0523 31 37.5V34.5C31 33.7043 31.3161 32.9413 31.8787 32.3787Z" fill="#FF8D28"/>
<path fill-rule="evenodd" clip-rule="evenodd" d="M37 36.5C37.5523 36.5 38 36.9477 38 37.5V37.51C38 38.0623 37.5523 38.51 37 38.51C36.4477 38.51 36 38.0623 36 37.51V37.5C36 36.9477 36.4477 36.5 37 36.5Z" fill="#FF8D28"/>
<path fill-rule="evenodd" clip-rule="evenodd" d="M28 22.5C28.5523 22.5 29 22.9477 29 23.5V26.5C29 27.2957 28.6839 28.0587 28.1213 28.6213C27.5587 29.1839 26.7957 29.5 26 29.5H23C22.4477 29.5 22 29.0523 22 28.5C22 27.9477 22.4477 27.5 23 27.5H26C26.2652 27.5 26.5196 27.3946 26.7071 27.2071C26.8946 27.0196 27 26.7652 27 26.5V23.5C27 22.9477 27.4477 22.5 28 22.5Z" fill="#FF8D28"/>
<path fill-rule="evenodd" clip-rule="evenodd" d="M18 28.5C18 27.9477 18.4477 27.5 19 27.5H19.01C19.5623 27.5 20.01 27.9477 20.01 28.5C20.01 29.0523 19.5623 29.5 19.01 29.5H19C18.4477 29.5 18 29.0523 18 28.5Z" fill="#FF8D28"/>
<path fill-rule="evenodd" clip-rule="evenodd" d="M27 19.5C27 18.9477 27.4477 18.5 28 18.5H28.01C28.5623 18.5 29.01 18.9477 29.01 19.5C29.01 20.0523 28.5623 20.5 28.01 20.5H28C27.4477 20.5 27 20.0523 27 19.5Z" fill="#FF8D28"/>
<path fill-rule="evenodd" clip-rule="evenodd" d="M28 31.5C28.5523 31.5 29 31.9477 29 32.5V32.51C29 33.0623 28.5523 33.51 28 33.51C27.4477 33.51 27 33.0623 27 32.51V32.5C27 31.9477 27.4477 31.5 28 31.5Z" fill="#FF8D28"/>
<path fill-rule="evenodd" clip-rule="evenodd" d="M31 28.5C31 27.9477 31.4477 27.5 32 27.5H33C33.5523 27.5 34 27.9477 34 28.5C34 29.0523 33.5523 29.5 33 29.5H32C31.4477 29.5 31 29.0523 31 28.5Z" fill="#FF8D28"/>
<path fill-rule="evenodd" clip-rule="evenodd" d="M37 27.5C37.5523 27.5 38 27.9477 38 28.5V28.51C38 29.0623 37.5523 29.51 37 29.51C36.4477 29.51 36 29.0623 36 28.51V28.5C36 27.9477 36.4477 27.5 37 27.5Z" fill="#FF8D28"/>
<path fill-rule="evenodd" clip-rule="evenodd" d="M28 35.5C28.5523 35.5 29 35.9477 29 36.5V37.5C29 38.0523 28.5523 38.5 28 38.5C27.4477 38.5 27 38.0523 27 37.5V36.5C27 35.9477 27.4477 35.5 28 35.5Z" fill="#FF8D28"/>
</svg>
